<?xml version="1.0" encoding="UTF-8" standalone="no"?>
<!DOCTYPE svg  PUBLIC '-//W3C//DTD SVG 1.1//EN'  'http://www.w3.org/Graphics/SVG/1.1/DTD/svg11.dtd'>
<svg xmlns="http://www.w3.org/2000/svg">
<defs>
<font id="Raleway-Light" horiz-adv-x="760">
<font-face underline-position="-50" font-weight="300" descent="-200" panose-1="2 11 0 3 3 1 1 6 0 3" units-per-em="1000" unicode-range="U+0020-2212" bbox="-220 -223 1132 936" x-height="520" underline-thickness="50" font-family="Raleway" ascent="800" cap-height="709"/>
<missing-glyph horiz-adv-x="0"/>
<glyph glyph-name=".notdef" horiz-adv-x="0"/>
<glyph glyph-name=".null" horiz-adv-x="0"/>
<glyph glyph-name="nonmarkingreturn" horiz-adv-x="0"/>
<glyph glyph-name="space" horiz-adv-x="261" unicode=" "/>
<glyph glyph-name="exclam" horiz-adv-x="231" unicode="!" d="M91 0v102h50v-102h-50zM91 218v499h50v-499h-50z"/>
<glyph glyph-name="quotedbl" horiz-adv-x="251" unicode='&quot;' d="M142 603v111h45v-111h-45zM64 603v111h45v-111h-45z"/>
<glyph glyph-name="numbersign" horiz-adv-x="673" unicode="#" d="M414 253l52 213h-209l-51 -213h208zM634 466h-126l-51 -213h135v-41h-145l-51 -212h-44l52 212h-208l-51 -212h-44l52 212h-113v41h123l51 213h-132v39h142l50 205h44l-51 -205h208l50 205h44l-51 -205h116v-39z"/>
<glyph glyph-name="dollar" horiz-adv-x="612" unicode="$" d="M114 523q0 -32 10.5 -54t32.5 -37.5t56 -26.5t81 -21v284q-95 -4 -137.5 -42.5t-42.5 -102.5zM518 176q0 33 -12.5 56.5t-37 41t-62 30.5t-86.5 24v-289q93 0 145.5 34t52.5 103zM508 592q-68 74 -188 77v-291q58 -12 105 -26.5t79.5 -36.5t50 -54t17.5 -79t-18 -81.5 t-51 -58t-79 -35.5t-101 -13v-93h-31v94q-150 8 -255 105l27 41q41 -43 99 -70t131 -32v295q-57 12 -100 25.5t-72.5 34t-44.5 49.5t-15 73q0 46 16.5 81.5t46.5 61t72.5 39.5t94.5 16v101h31v-100q66 -2 117.5 -22.5t93.5 -60.5z"/>
<glyph glyph-name="percent" horiz-adv-x="706" unicode="%" d="M62 21l280 344l274 348l28 -23l-280 -345l-274 -348zM514 22q22 0 41.5 9t33.5 24t22.5 35t8.5 42t-8.5 42t-23.5 35t-34 23.5t-40 8.5q-22 0 -41.5 -9t-33.5 -24t-22.5 -35t-8.5 -41q0 -23 8.5 -43t23 -35t33.5 -23.5t41 -8.5zM514 -10q-30 0 -56.5 11t-46 30.5t-31 45 t-11.5 55.5q0 29 11.5 55t31 45t46 30t56.5 11t56.5 -11t46 -30t31 -45t11.5 -55q0 -30 -11.5 -55.5t-31 -45t-46 -30.5t-56.5 -11zM192 469q22 0 41.5 9t33.5 24t22.5 35t8.5 41q0 23 -8.5 43t-23.5 35t-34 23.5t-40 8.5q-22 0 -41.5 -9t-33.5 -24t-22.5 -35t-8.5 -42 q0 -23 8.5 -42.5t23 -34.5t34 -23.5t40.5 -8.5zM192 437q-30 0 -56.5 11t-46 30t-31 45t-11.5 55q0 30 11.5 55.5t31 45t46 30.5t56.5 11t56.5 -11t46 -30.5t31 -45t11.5 -55.5q0 -29 -11.5 -55t-31 -45t-46 -30t-56.5 -11z"/>
<glyph glyph-name="ampersand" horiz-adv-x="660" unicode="&amp;" d="M151 568q0 -13 3.5 -26t14 -30.5t29 -39.5t48.5 -53q33 22 59.5 41.5t45.5 38.5t29.5 39t10.5 43q0 42 -32 69.5t-81 27.5q-27 0 -50 -9t-40.5 -24t-27 -35t-9.5 -42zM278 31q57 0 103.5 25.5t80.5 68.5l-226 238q-29 -20 -53.5 -40.5t-43.5 -43t-29.5 -48t-10.5 -55.5 q0 -36 16 -63t41.5 -45.5t57.5 -27.5t64 -9zM582 0l-91 95q-41 -48 -96.5 -76.5t-121.5 -28.5q-45 0 -85 13t-71 37.5t-49 59t-18 78.5q0 36 12.5 66t34 56t50 48.5t60.5 44.5q-28 30 -47.5 54.5t-32 44.5t-18 38.5t-5.5 36.5q0 31 13.5 58.5t37 48.5t55 33t68.5 12 q34 0 63.5 -10.5t51 -28.5t33.5 -43t12 -54q0 -30 -13 -56.5t-35.5 -49.5t-52 -45t-62.5 -43l214 -224q23 40 35 86t12 97h43q0 -60 -15.5 -114.5t-44.5 -99.5l129 -134h-66z"/>
<glyph glyph-name="quotesingle" horiz-adv-x="156" unicode="&apos;" d="M56 620v94h44v-94h-44z"/>
<glyph glyph-name="parenleft" horiz-adv-x="257" unicode="(" d="M47 345q0 51 10.5 100.5t29.5 97.5t43.5 95.5t53.5 95.5l39 -20q-22 -32 -45 -76.5t-41.5 -94.5t-30.5 -102t-12 -99q0 -78 34 -170.5t94 -182.5l-37 -22q-65 94 -101.5 189t-36.5 189z"/>
<glyph glyph-name="parenright" horiz-adv-x="257" unicode=")" d="M210 345q0 -94 -36.5 -189t-100.5 -189l-38 22q60 90 94 182.5t34 170.5q0 47 -12 99t-31 102t-41.5 94.5t-44.5 76.5l39 20q28 -48 53 -95.5t44 -95.5t29.5 -97.5t10.5 -100.5z"/>
<glyph glyph-name="asterisk" horiz-adv-x="317" unicode="*" d="M91 553l42 60l-68 22l9 29l69 -24l-3 72h37l-3 -72l68 24l9 -29l-68 -22l43 -60l-26 -18l-42 61l-42 -61z"/>
<glyph glyph-name="plus" horiz-adv-x="417" unicode="+" d="M362 376v-42h-130v-141h-47v141h-130v42h130v141h47v-141h130z"/>
<glyph glyph-name="comma" horiz-adv-x="196" unicode="," d="M61 -14q7 0 12.5 3.5t5.5 14.5v81h44v-87q0 -28 -19 -40t-43 -12v40z"/>
<glyph glyph-name="hyphen" horiz-adv-x="424" unicode="-" d="M68 249v46h288v-46h-288z"/>
<glyph glyph-name="period" horiz-adv-x="180" unicode="." d="M68 0v85h44v-85h-44z"/>
<glyph glyph-name="slash" horiz-adv-x="581" unicode="/" d="M553 710l-466 -710h-57l465 710h58z"/>
<glyph glyph-name="zero" horiz-adv-x="616" unicode="0" d="M506 293q0 57 -14.5 104.5t-40.5 81t-62.5 52.5t-80.5 19t-81 -19t-63 -52.5t-40.5 -81t-14.5 -104.5t14.5 -104t40.5 -81t63 -52.5t81 -18.5t80.5 18.5t62.5 52.5t40.5 81t14.5 104zM557 293q0 -66 -19 -121.5t-52 -96t-78.5 -63t-99.5 -22.5t-99.5 22.5t-79 63t-52 96 t-18.5 121.5t18.5 121.5t52 96t79 63.5t99.5 23t99.5 -23t78.5 -63.5t52 -96t19 -121.5z"/>
<glyph glyph-name="one" horiz-adv-x="410" unicode="1" d="M388 46v-46h-320v46h142v462q-8 -12 -27.5 -26t-43 -26.5t-48.5 -21t-45 -8.5v50q25 0 53 13.5t52 30.5t40.5 32.5t18.5 18.5h51v-525h127z"/>
<glyph glyph-name="two" horiz-adv-x="523" unicode="2" d="M54 0q0 29 5 63.5t22.5 69t50.5 68t90 61.5q24 12 55.5 26t59.5 32.5t47.5 43t19.5 57.5q0 21 -9 41.5t-26.5 36.5t-43.5 26t-61 10q-36 0 -63.5 -10t-48 -23.5t-34.5 -27.5t-21 -23l-34 35q12 13 31.5 30t45.5 31t58.5 24t72.5 10q44 0 78.5 -12.5t58.5 -34.5 t36.5 -50.5t12.5 -60.5q0 -41 -18.5 -70.5t-46.5 -50.5t-59.5 -36t-58.5 -25q-47 -19 -77.5 -41t-49 -47t-26.5 -52t-10 -55h357v-46h-414z"/>
<glyph glyph-name="three" horiz-adv-x="530" unicode="3" d="M331 236q68 -11 109 -61t41 -123q0 -45 -16.5 -81.5t-46 -62.5t-70.5 -40.5t-91 -14.5q-75 0 -132 32t-83 88l37 30q20 -48 66 -76t113 -28q79 0 125 41t46 114t-47.5 116t-134.5 43h-24v44h26q81 0 124 36.5t43 97.5q0 33 -12 58.5t-33 43.5t-50 27.5t-63 9.5 q-60 0 -105 -27.5t-66 -74.5l-34 28q12 27 32.5 49t48 38t60 24.5t68.5 8.5q45 0 82.5 -13t65 -37t43 -57t15.5 -73q0 -31 -9.5 -58t-27.5 -48t-43.5 -35.5t-56.5 -18.5z"/>
<glyph glyph-name="four" horiz-adv-x="536" unicode="4" d="M77 105h294v385zM367 -127v186h-346v44l361 468h35v-466h88v-46h-88v-186h-50z"/>
<glyph glyph-name="five" horiz-adv-x="550" unicode="5" d="M278 310q48 0 90 -16.5t73.5 -46.5t49.5 -71.5t18 -91.5q0 -53 -19.5 -95.5t-52.5 -73.5t-77 -47.5t-93 -16.5q-38 0 -72.5 10t-64 28.5t-52 44t-37.5 57.5l36 21q28 -52 78.5 -83.5t111.5 -31.5q40 0 75 13.5t60.5 38.5t40.5 59t15 76q0 40 -14.5 73t-39.5 57t-58.5 37 t-72.5 13q-51 0 -96 -22.5t-74 -64.5h-48q1 7 5.5 28t10 50t12.5 64l14 70q17 82 37 182h340v-47h-302l-55 -281q29 32 71 49.5t90 17.5z"/>
<glyph glyph-name="six" horiz-adv-x="605" unicode="6" d="M312 35q41 0 77 15.5t63 42.5t43 63t16 77t-16 77t-43 63t-63.5 43t-77.5 16t-77.5 -16t-63.5 -43t-43 -63t-16 -77t16 -77t43.5 -63t64 -42.5t77.5 -15.5zM560 233q0 -51 -19.5 -95t-53 -77t-79.5 -52t-98 -19q-55 0 -101.5 20t-80 57t-52.5 90.5t-19 121.5 q0 112 19 194t53 136t81.5 80t104.5 26q72 0 128 -37t82 -101l-35 -27q-20 54 -67.5 87t-107.5 33q-47 0 -85.5 -22.5t-65.5 -66t-42.5 -106.5t-15.5 -144q11 32 32 58.5t48.5 45.5t60.5 29.5t69 10.5q51 0 95.5 -19t77.5 -52t52 -77t19 -94z"/>
<glyph glyph-name="seven" horiz-adv-x="543" unicode="7" d="M448 536h-400v47h479l-360 -710h-57z"/>
<glyph glyph-name="eight" horiz-adv-x="594" unicode="8" d="M129 531q0 -32 15.5 -56t39.5 -41t53.5 -25.5t58.5 -8.5t59 9t54 26t39.5 41.5t15.5 56.5q0 31 -14.5 55.5t-38 41t-54 25.5t-62.5 9t-62 -9t-53 -26.5t-37 -42t-14 -55.5zM489 198q0 38 -17.5 68t-45.5 50.5t-62.5 31.5t-68.5 11q-35 0 -69 -11.5t-61 -32.5t-44 -51 t-17 -67q0 -38 17.5 -67.5t45.5 -50t62.5 -31.5t68.5 -11t68.5 11.5t61.5 32.5t44 50.5t17 66.5zM540 194q0 -46 -20 -83t-54 -63.5t-78.5 -40.5t-93.5 -14q-54 0 -98 16.5t-76 44t-49.5 64.5t-17.5 79q0 35 13 65t34.5 53.5t48.5 40t55 25.5q-26 9 -48.5 24t-39.5 34 t-27 43t-10 51q0 43 19.5 76t50.5 55.5t70 34t78 11.5t78 -11.5t70 -34t50.5 -55t19.5 -75.5q0 -28 -10.5 -51.5t-27.5 -43t-40.5 -34.5t-48.5 -24q31 -11 59 -28.5t48.5 -41.5t32.5 -53.5t12 -63.5z"/>
<glyph glyph-name="nine" horiz-adv-x="589" unicode="9" d="M287 526q-41 0 -77 -15.5t-63 -42.5t-43 -63t-16 -77t16 -77t43 -63t63.5 -43t77.5 -16t77.5 16t63.5 43t43 63t16 77q0 40 -16 76t-43.5 63t-64 43t-77.5 16zM39 328q0 51 19.5 95t53 77t79 52t98.5 19q55 0 101 -20t80 -57t53 -91t19 -121q0 -112 -19 -194t-53 -136 t-81.5 -80t-104.5 -26q-72 0 -128 37t-82 101l35 27q20 -54 67.5 -87t107.5 -33q47 0 85.5 22.5t65.5 66t42.5 106.5t15.5 144q-11 -32 -32 -58.5t-48.5 -45.5t-60.5 -29.5t-69 -10.5q-51 0 -95.5 19t-77.5 52t-52 77t-19 94z"/>
<glyph glyph-name="colon" horiz-adv-x="185" unicode=":" d="M71 0v85h43v-85h-43zM71 432v85h43v-85h-43z"/>
<glyph glyph-name="semicolon" horiz-adv-x="201" unicode=";" d="M63 -14q8 0 13 3.5t5 14.5v81h44v-87q0 -28 -19 -40t-43 -12v40zM81 432v85h44v-85h-44z"/>
<glyph glyph-name="less" horiz-adv-x="505" unicode="&lt;" d="M34 273l418 251v-54l-345 -211l345 -211v-55l-418 250v30z"/>
<glyph glyph-name="equal" horiz-adv-x="443" unicode="=" d="M72 306v38h299v-38h-299zM72 208v38h299v-38h-299z"/>
<glyph glyph-name="greater" horiz-adv-x="505" unicode="&gt;" d="M471 243l-418 -250v55l346 211l-346 211v54l418 -251v-30z"/>
<glyph glyph-name="question" horiz-adv-x="476" unicode="?" d="M165 0v98h44v-98h-44zM164 193q0 39 5.5 67t16.5 48.5t27 35t36 26.5q21 12 46 24.5t46.5 30t35.5 43.5t14 65q0 36 -12.5 63t-33 45t-47 26.5t-54.5 8.5q-57 0 -103 -30t-69 -78l-36 22q13 31 35.5 55t50 40.5t59 25t63.5 8.5q37 0 71.5 -12t61.5 -35.5t43 -59t16 -82.5 q0 -42 -13.5 -71t-35 -50t-48.5 -35.5t-53 -27.5q-17 -9 -31.5 -19t-25 -26.5t-16 -42.5t-5.5 -65h-44z"/>
<glyph glyph-name="at" horiz-adv-x="823" unicode="@" d="M484 64q22 10 35.5 23t21 27.5t9.5 29t2 29.5v42q-12 2 -46.5 12.5t-86.5 10.5q-27 0 -53 -5t-46 -16t-32.5 -29.5t-12.5 -46.5q0 -23 9 -41.5t24.5 -31t36 -19.5t44.5 -7q26 0 51 6.5t44 15.5zM419 603q74 0 139.5 -28.5t115 -79t78 -120.5t28.5 -153q0 -14 -1.5 -37.5 t-6.5 -50t-14.5 -53.5t-25.5 -48.5t-39.5 -35t-56.5 -13.5q-24 0 -39 7.5t-23.5 20.5t-12 30.5t-5.5 36.5q-27 -29 -71.5 -50t-96.5 -21q-69 0 -109 37t-40 94q0 37 16.5 62.5t42.5 40.5t59 21.5t66 6.5q44 0 78.5 -8.5t51.5 -14.5q0 38 -6 69.5t-20 54t-39 35t-62 12.5 q-39 0 -75 -12.5t-67 -35.5l-15 31q35 23 75 37.5t86 14.5q53 0 84.5 -18t48 -47.5t21 -66t4.5 -72.5v-138q0 -45 9 -70.5t43 -25.5q33 0 54 22t33.5 53.5t17.5 67.5t5 65q0 73 -25.5 137.5t-70.5 111.5t-105.5 74.5t-130.5 27.5q-68 0 -128.5 -25.5t-107 -71.5t-73.5 -109 t-27 -138q0 -72 25.5 -135.5t70.5 -110.5t105.5 -74t131.5 -27q42 0 79 9.5t74 28.5l11 -27q-39 -20 -81 -30t-84 -10q-74 0 -140 28.5t-115.5 79t-78 119t-28.5 149.5q0 84 30.5 152.5t81.5 117.5t117 76t138 27z"/>
<glyph glyph-name="A" horiz-adv-x="681" unicode="A" d="M341 648l-158 -372h313zM18 0l302 710h42l302 -710h-55l-99 234h-339l-99 -234h-54z"/>
<glyph glyph-name="B" horiz-adv-x="665" unicode="B" d="M145 664v-284h260q29 0 53 12t41.5 31.5t27.5 45.5t10 53q0 29 -9.5 54.5t-26 45t-39.5 31t-51 11.5h-266zM566 191q0 28 -10 54.5t-28 47t-42.5 32.5t-52.5 12h-288v-291h281q30 0 55.5 12t44 32.5t29.5 46.5t11 54zM617 184q0 -39 -15 -72.5t-41 -58.5t-61 -39t-74 -14 h-332v710h331q37 0 67 -16t51 -41.5t32.5 -58t11.5 -65.5q0 -54 -27 -99t-75 -66q61 -18 96.5 -67.5t35.5 -112.5z"/>
<glyph glyph-name="C" horiz-adv-x="694" unicode="C" d="M47 360q0 64 22.5 127.5t65.5 113.5t105.5 81.5t142.5 31.5q95 0 162 -43.5t99 -111.5l-42 -24q-18 37 -43.5 62t-55 40.5t-61.5 22.5t-63 7q-68 0 -120 -27.5t-88 -71.5t-54.5 -99.5t-18.5 -111.5q0 -63 22 -120t60 -100.5t90 -69.5t112 -26q32 0 65.5 8t65 25 t58.5 43.5t45 62.5l43 -21q-18 -40 -48.5 -71t-68.5 -52t-80.5 -31.5t-83.5 -10.5q-73 0 -133.5 32t-104.5 83.5t-68.5 117t-24.5 133.5z"/>
<glyph glyph-name="D" horiz-adv-x="718" unicode="D" d="M616 356q0 67 -19 123.5t-55.5 97.5t-89.5 64t-122 23h-185v-618h185q70 0 123.5 23.5t89.5 65.5t54.5 98.5t18.5 122.5zM94 0v710h236q84 0 147.5 -28t105.5 -76t63 -112.5t21 -137.5q0 -81 -23.5 -146.5t-67.5 -112t-106.5 -72t-139.5 -25.5h-236z"/>
<glyph glyph-name="E" horiz-adv-x="615" unicode="E" d="M567 46v-46h-473v710h464v-46h-413v-279h361v-44h-361v-295h422z"/>
<glyph glyph-name="F" horiz-adv-x="589" unicode="F" d="M94 0v710h462v-46h-411v-282h349v-44h-349v-338h-51z"/>
<glyph glyph-name="G" horiz-adv-x="725" unicode="G" d="M619 110q-103 -115 -238 -115q-72 0 -133.5 31t-105.5 82t-69 116t-25 132q0 70 24.5 135t68 115t103 79.5t130.5 29.5q54 0 96.5 -11.5t75.5 -32t57.5 -49t41.5 -62.5l-41 -25q-37 70 -96.5 101.5t-134.5 31.5q-63 0 -113.5 -27t-86.5 -71t-55 -100t-19 -115 q0 -63 22 -119.5t60.5 -99.5t90.5 -68.5t112 -25.5q65 0 122.5 30t112.5 94v138h-161v41h206v-345h-45v110z"/>
<glyph glyph-name="H" horiz-adv-x="738" unicode="H" d="M644 710v-710h-51v340h-448v-340h-51v710h51v-324h448v324h51z"/>
<glyph glyph-name="I" horiz-adv-x="239" unicode="I" d="M94 0v709h51v-709h-51z"/>
<glyph glyph-name="J" horiz-adv-x="484" unicode="J" d="M36 74q25 -17 60 -27.5t78 -10.5q58 0 92 21t52 61t23.5 98.5t5.5 132.5v360h51v-360q0 -81 -7 -147.5t-30.5 -113.5t-67.5 -73t-119 -26q-90 0 -154 44z"/>
<glyph glyph-name="K" horiz-adv-x="634" unicode="K" d="M94 0v709h51v-430l414 431h59l-295 -311l310 -399h-58l-285 368l-145 -149v-219h-51z"/>
<glyph glyph-name="L" horiz-adv-x="591" unicode="L" d="M94 0v710h51v-664h424v-46h-475z"/>
<glyph glyph-name="M" horiz-adv-x="882" unicode="M" d="M737 0v614l-280 -479h-32l-280 479v-614h-51v710h51l296 -508l296 508h51v-710h-51z"/>
<glyph glyph-name="N" horiz-adv-x="776" unicode="N" d="M145 614v-614h-51v710h39l498 -625v624h51v-709h-47z"/>
<glyph glyph-name="O" d="M99 355q0 -61 20.5 -117.5t58 -100t89 -69.5t113.5 -26q64 0 115.5 27t88.5 71.5t57 100.5t20 114q0 61 -21 117.5t-58.5 100t-89 69.5t-112.5 26q-64 0 -116 -27t-88.5 -71.5t-56.5 -100.5t-20 -114zM380 -5q-74 0 -135 31t-105 81t-68 115t-24 133q0 71 25.5 136 t70 115t105.5 79.5t132 29.5q74 0 135 -31.5t104.5 -82.5t67.5 -115.5t24 -130.5q0 -72 -25.5 -137t-70 -114.5t-105 -79t-131.5 -29.5z" unicode="O"/>
<glyph glyph-name="P" horiz-adv-x="622" unicode="P" d="M145 315h245q35 0 63 14.5t47.5 39t30 56t10.5 65.5q0 35 -12.5 66.5t-34 55.5t-50 38t-60.5 14h-239v-349zM94 0v710h292q45 0 83 -19t65.5 -50.5t43 -71t15.5 -79.5q0 -43 -14.5 -83t-41 -71t-63 -49.5t-81.5 -18.5h-248v-268h-51z"/>
<glyph glyph-name="Q" d="M380 42q50 0 92 17t77 46l-84 101h53l60 -73q40 45 61.5 103t21.5 119t-21 117.5t-58.5 100t-89 69.5t-112.5 26q-64 0 -116 -27t-88.5 -71.5t-56.5 -100.5t-20 -114q0 -61 20.5 -117.5t58 -100t89 -69.5t113.5 -26zM580 67q-42 -34 -92.5 -53t-107.5 -19q-74 0 -135 31 t-105 81t-68 115t-24 133q0 71 25.5 136t70 115t105.5 79.5t132 29.5q74 0 135 -31.5t104.5 -82.5t67.5 -115.5t24 -130.5q0 -75 -27.5 -142t-75.5 -118l79 -95h-52z" unicode="Q"/>
<glyph glyph-name="R" horiz-adv-x="656" unicode="R" d="M145 315h249q34 0 62 15t48 39.5t30.5 56t10.5 64.5q0 34 -12.5 65.5t-34 55.5t-50 38.5t-61.5 14.5h-242v-349zM94 0v710h296q45 0 83 -19t65 -50.5t42.5 -71t15.5 -79.5q0 -39 -12 -75.5t-34 -65.5t-53 -48t-68 -25l177 -276h-59l-172 268h-230v-268h-51z"/>
<glyph glyph-name="S" horiz-adv-x="611" unicode="S" d="M509 592q-69 77 -195 77q-104 0 -151.5 -39.5t-47.5 -106.5q0 -34 12 -57t37.5 -38.5t65 -27t93.5 -22.5q58 -12 104 -26.5t78.5 -36.5t50 -54t17.5 -79t-18.5 -82t-52 -58.5t-80 -35.5t-103.5 -12q-166 0 -281 106l27 41q45 -47 110 -74.5t146 -27.5q93 0 145.5 34 t52.5 103q0 35 -13.5 59.5t-41.5 42.5t-69.5 31t-97.5 25q-57 12 -100.5 25.5t-73.5 34t-45 49.5t-15 73q0 48 18.5 85t51.5 62.5t79 38.5t102 13q69 0 123 -20.5t98 -62.5z"/>
<glyph glyph-name="T" horiz-adv-x="613" unicode="T" d="M592 664h-260v-664h-51v664h-260v46h571v-46z"/>
<glyph glyph-name="U" horiz-adv-x="757" unicode="U" d="M378 42q72 0 119.5 27t75.5 71t39.5 100t11.5 113v357h51v-357q0 -71 -15.5 -136t-50.5 -114.5t-91.5 -78.5t-138.5 -29q-84 0 -141 30.5t-91.5 81t-49 114.5t-14.5 132v357h51v-357q0 -59 11.5 -115t39.5 -99.5t75 -70t118 -26.5z"/>
<glyph glyph-name="V" horiz-adv-x="678" unicode="V" d="M68 710l271 -646l270 646h54l-301 -710h-46l-301 710h53z"/>
<glyph glyph-name="W" horiz-adv-x="1044" unicode="W" d="M365 705h50l106 -258l106 258h50l-125 -299l149 -346l272 650h56l-304 -710h-47l-156 365l-157 -365h-47l-303 710h55l273 -650l147 346z"/>
<glyph glyph-name="X" horiz-adv-x="627" unicode="X" d="M66 710l248 -323l248 323h58l-278 -360l270 -350h-58l-240 313l-240 -313h-59l270 350l-278 360h59z"/>
<glyph glyph-name="Y" horiz-adv-x="631" unicode="Y" d="M67 710l248 -393l250 393h56l-280 -442v-268h-51v270l-279 440h56z"/>
<glyph glyph-name="Z" horiz-adv-x="625" unicode="Z" d="M29 42l504 622h-498v46h559v-42l-502 -622h500v-46h-563v42z"/>
<glyph glyph-name="bracketleft" horiz-adv-x="234" unicode="[" d="M87 -40v780h101v-43h-53v-694h53v-43h-101z"/>
<glyph glyph-name="backslash" horiz-adv-x="550" unicode="\" d="M86 710l435 -710h-57l-436 710h58z"/>
<glyph glyph-name="bracketright" horiz-adv-x="234" unicode="]" d="M46 -40v43h53v694h-53v43h101v-780h-101z"/>
<glyph glyph-name="asciicircum" horiz-adv-x="529" unicode="^" d="M46 303l198 407h43l197 -407h-46l-173 356l-175 -356h-44z"/>
<glyph glyph-name="underscore" horiz-adv-x="424" unicode="_" d="M19 -46v46h386v-46h-386z"/>
<glyph glyph-name="grave" horiz-adv-x="213" unicode="`" d="M49 730h57l62 -85l-34 -16z"/>
<glyph glyph-name="a" horiz-adv-x="539" unicode="a" d="M216 30q58 0 107 21.5t73 58.5q17 20 17 40v92q-76 28 -156 28q-78 0 -126 -32t-48 -84q0 -26 10 -49t28 -39.5t42.5 -26t52.5 -9.5zM206 -10q-36 0 -67.5 12.5t-55 34t-36.5 51t-13 63.5t16 62t45 48.5t68.5 32t87.5 11.5q42 0 85 -7.5t77 -20.5v51q0 74 -42 117.5 t-114 43.5q-39 0 -81.5 -16t-85.5 -46l-20 34q101 68 190 68q94 0 148.5 -54.5t54.5 -150.5v-254q0 -25 21 -25v-45q-5 -1 -9.5 -1h-8.5q-18 0 -33 12.5t-15 32.5v43q-36 -47 -91.5 -72t-120.5 -25z"/>
<glyph glyph-name="b" horiz-adv-x="611" unicode="b" d="M310 35q45 0 83 19t65.5 50.5t43 71.5t15.5 82q0 44 -14.5 84.5t-40.5 72t-62.5 50.5t-80.5 19q-33 0 -62.5 -11.5t-54 -30.5t-43.5 -44t-32 -52v-172q3 -29 21.5 -54.5t45.5 -44t58 -29.5t58 -11zM320 -10q-62 0 -115 32t-83 82v-104h-45v730h50v-323q37 54 87 88 t116 34q55 0 99.5 -23.5t75 -62t47 -87t16.5 -98.5q0 -54 -19 -102.5t-52.5 -85t-79 -58.5t-97.5 -22z"/>
<glyph glyph-name="c" horiz-adv-x="546" unicode="c" d="M42 262q0 55 19 104t53.5 85t81.5 57t103 21q71 0 124.5 -32t81.5 -89l-49 -16q-23 43 -66 67.5t-94 24.5q-43 0 -80 -17t-64.5 -47t-43 -70.5t-15.5 -87.5t16.5 -88.5t44 -72t64.5 -48.5t79 -18q27 0 53.5 8t49 21t39 30.5t22.5 36.5l49 -14q-10 -27 -30.5 -50.5 t-48.5 -40.5t-61.5 -26.5t-69.5 -9.5q-55 0 -102 21.5t-81.5 59t-54.5 86.5t-20 105z"/>
<glyph glyph-name="d" horiz-adv-x="616" unicode="d" d="M301 35q27 0 58 11t58 30.5t45.5 44.5t21.5 54v171q-11 28 -31.5 53.5t-46.5 44t-56 29.5t-58 11q-45 0 -81.5 -19.5t-63 -51t-40.5 -72t-14 -83.5q0 -45 16 -85t44.5 -71t66 -49t81.5 -18zM292 -10q-54 0 -100 22.5t-79.5 60t-52 86t-18.5 100.5q0 54 18 103t50 86 t75.5 59t95.5 22q34 0 64.5 -10t56 -26.5t46.5 -38.5t36 -47v323h50v-660q0 -25 21 -25v-45q-5 -1 -9 -1h-8q-22 0 -35.5 14t-13.5 31v60q-32 -52 -85.5 -83t-111.5 -31z"/>
<glyph glyph-name="e" horiz-adv-x="584" unicode="e" d="M503 280q-3 46 -20.5 84t-45 65.5t-63.5 43t-77 15.5t-77 -15.5t-63.5 -43t-44 -66t-19.5 -83.5h410zM299 -10q-55 0 -102 21.5t-81.5 59t-54 86.5t-19.5 105q0 55 19.5 103.5t53.5 85t81 57.5t101 21q55 0 101.5 -21.5t80.5 -58t53.5 -85t19.5 -102.5q0 -5 -0.5 -12.5 t-0.5 -9.5h-457q3 -45 21 -83.5t45.5 -66.5t63.5 -44t77 -16q27 0 53.5 7.5t49 20.5t40 31.5t27.5 40.5l44 -12q-12 -28 -33.5 -51.5t-50 -40.5t-62.5 -26.5t-70 -9.5z"/>
<glyph glyph-name="f" horiz-adv-x="336" unicode="f" d="M103 0v418h-73v41h73v78q0 96 39.5 149.5t108.5 53.5q29 0 57 -9t46 -24l-18 -36q-14 11 -34.5 18t-42.5 7q-51 0 -78.5 -40.5t-27.5 -117.5v-79h148v-41h-148v-418h-50z"/>
<glyph glyph-name="g" horiz-adv-x="611" unicode="g" d="M301 35q33 0 64 12.5t56.5 32.5t42.5 45t20 50v171q-12 30 -32 55.5t-45.5 43.5t-55 28.5t-59.5 10.5q-47 0 -84 -20t-62.5 -52t-39 -72.5t-13.5 -81.5q0 -45 16 -85t44.5 -71t66 -49t81.5 -18zM289 -8q-54 0 -99 22.5t-78 60t-51 85.5t-18 99q0 53 17.5 102t49.5 86.5 t76.5 59.5t97.5 22q68 0 118.5 -35.5t86.5 -86.5v113h45v-530q0 -53 -20 -93t-53.5 -66.5t-78 -40t-93.5 -13.5q-45 0 -81 8.5t-63.5 24t-49 38t-37.5 49.5l34 23q31 -53 84 -77.5t113 -24.5q40 0 75.5 11t62 32.5t42 53.5t15.5 75v114q-32 -50 -85 -81t-110 -31z"/>
<glyph glyph-name="h" horiz-adv-x="573" unicode="h" d="M502 0h-50v290q0 97 -33 145t-96 48q-32 0 -63 -12t-57.5 -34t-46.5 -51.5t-29 -63.5v-322h-50v730h50v-334q32 61 88.5 97t121.5 36q43 0 74 -16t51.5 -46t30 -72.5t9.5 -95.5v-299z"/>
<glyph glyph-name="i" horiz-adv-x="204" unicode="i" d="M77 638v92h50v-92h-50zM77 0v520h50v-520h-50z"/>
<glyph glyph-name="j" horiz-adv-x="204" unicode="j" d="M77 638v92h50v-92h-50zM-19 -177q-32 0 -59.5 8.5t-49.5 28.5l27 33q17 -14 37 -19t40 -5q19 0 37 7.5t32 21t23 32t9 40.5v550h50v-548q0 -33 -12.5 -60t-33.5 -47t-47 -31t-53 -11z"/>
<glyph glyph-name="k" horiz-adv-x="519" unicode="k" d="M453 0l-203 278l-123 -113v-165h-50v730h50v-510l316 299h58l-218 -211l225 -308h-55z"/>
<glyph glyph-name="l" horiz-adv-x="249" unicode="l" d="M80 730h51v-627q0 -29 16.5 -46t45.5 -17q11 0 26.5 2.5t28.5 7.5l10 -40q-17 -7 -42 -11.5t-43 -4.5q-42 0 -67.5 25.5t-25.5 68.5v642z"/>
<glyph glyph-name="m" horiz-adv-x="912" unicode="m" d="M841 0h-50v290q0 99 -30.5 146t-93.5 47q-33 0 -62 -12t-52.5 -33.5t-41 -51t-27.5 -65.5v-321h-50v290q0 100 -30 146.5t-93 46.5q-32 0 -61 -11.5t-53 -33t-42 -51t-28 -65.5v-322h-50v520h46v-124q33 63 85 98t115 35q66 0 106.5 -39t48.5 -102q76 141 204 141 q86 0 122.5 -60.5t36.5 -169.5v-299z"/>
<glyph glyph-name="n" horiz-adv-x="573" unicode="n" d="M502 0h-50v290q0 101 -28.5 147t-91.5 46q-33 0 -65.5 -12t-60 -34t-48.5 -51.5t-31 -63.5v-322h-50v520h46v-124q16 30 40 54.5t53 42t62.5 27t68.5 9.5q85 0 120 -59.5t35 -170.5v-299z"/>
<glyph glyph-name="o" horiz-adv-x="592" unicode="o" d="M93 257q0 -46 16 -86.5t43.5 -70.5t64.5 -47.5t79 -17.5t79 17.5t64.5 48.5t44 71.5t16.5 87.5q0 46 -16.5 86.5t-44 71t-64.5 48.5t-79 18q-41 0 -78 -18t-65 -49t-44 -72.5t-16 -87.5zM296 -10q-55 0 -101.5 21.5t-80.5 58.5t-53 86t-19 103q0 55 19.5 104t54 86 t80.5 58.5t100 21.5t100.5 -21.5t81 -58.5t54 -86t19.5 -104q0 -54 -19.5 -103t-53.5 -86t-81 -58.5t-101 -21.5z"/>
<glyph glyph-name="p" horiz-adv-x="611" unicode="p" d="M319 35q45 0 81.5 19t62.5 50.5t40 72t14 82.5q0 45 -16 85.5t-44 71.5t-66 49.5t-81 18.5q-27 0 -58 -11.5t-58 -31t-45.5 -44.5t-21.5 -53v-171q12 -29 32 -54t45 -44t54.5 -29.5t60.5 -10.5zM330 -10q-67 0 -119 35.5t-84 86.5v-325h-50v733h45v-104q32 50 85 81.5 t113 31.5q54 0 99.5 -23t78.5 -60.5t51.5 -86.5t18.5 -100q0 -54 -17 -103t-48.5 -86t-75.5 -58.5t-97 -21.5z"/>
<glyph glyph-name="q" horiz-adv-x="611" unicode="q" d="M293 35q33 0 61.5 11t52.5 29t43.5 42.5t33.5 51.5v170q-4 29 -22 55t-44.5 46t-57.5 32t-61 12q-45 0 -83 -19.5t-65.5 -51t-42.5 -72.5t-15 -83q0 -45 15 -85t41.5 -71t63 -49t80.5 -18zM280 -10q-54 0 -97.5 22.5t-75 60t-48.5 86t-17 100.5q0 54 19.5 103t53 86 t79 59t97.5 22q61 0 114 -32.5t83 -81.5v105h46v-661q0 -25 21 -26v-44q-5 -1 -9 -1h-9q-23 0 -38 15t-15 38v271q-40 -60 -92 -91t-112 -31z"/>
<glyph glyph-name="r" horiz-adv-x="341" unicode="r" d="M323 475q-71 -2 -123 -41.5t-73 -108.5v-325h-50v520h47v-128q27 55 71.5 89.5t95.5 39.5q10 0 18 0.5t14 0.5v-47z"/>
<glyph glyph-name="s" horiz-adv-x="481" unicode="s" d="M243 -10q-60 0 -115 20t-96 60l25 34q42 -38 87 -56t99 -18q68 0 109.5 28.5t41.5 79.5q0 24 -10.5 40.5t-31.5 28t-52 20.5t-72 19q-44 10 -76.5 20t-53.5 24t-31.5 34t-10.5 51q0 39 15 68t41.5 48t61 28.5t73.5 9.5q61 0 108 -20.5t73 -52.5l-28 -27q-26 30 -67.5 45 t-88.5 15q-29 0 -54.5 -6t-44.5 -19t-30 -33.5t-11 -48.5q0 -23 7.5 -37t24 -24t42.5 -17.5t62 -16.5q49 -12 87 -23t63.5 -27t39 -38t13.5 -56q0 -70 -54.5 -111.5t-145.5 -41.5z"/>
<glyph glyph-name="t" horiz-adv-x="318" unicode="t" d="M311 25q-4 -2 -13.5 -7.5t-24 -10.5t-32.5 -9t-39 -4t-39.5 6t-32.5 18t-22.5 29t-8.5 40v392h-73v41h73v178h50v-178h122v-41h-122v-380q0 -29 20 -43.5t46 -14.5q31 0 53.5 10.5t27.5 13.5z"/>
<glyph glyph-name="u" horiz-adv-x="587" unicode="u" d="M238 -10q-167 0 -167 230v300h50v-293q0 -192 131 -192q33 0 64.5 11.5t58.5 32t47.5 49.5t32.5 64v328h50v-450q0 -25 21 -25v-45q-6 -1 -10 -1h-8q-21 0 -34.5 12.5t-13.5 32.5v79q-35 -63 -94 -98t-128 -35z"/>
<glyph glyph-name="v" horiz-adv-x="526" unicode="v" d="M237 0l-217 520h53l191 -470l193 470h49l-217 -520h-52z"/>
<glyph glyph-name="w" horiz-adv-x="807" unicode="w" d="M738 520h50l-225 -520h-42l-117 275l-117 -275h-43l-224 520h49l199 -465l109 256l-89 208h44l72 -172l71 172h44l-88 -208l109 -256z"/>
<glyph glyph-name="x" horiz-adv-x="493" unicode="x" d="M71 520l167 -215l8 -14l9 14l167 215h55l-202 -261l202 -259h-56l-166 214l-9 13l-8 -13l-166 -214h-56l202 259l-203 261h56z"/>
<glyph glyph-name="y" horiz-adv-x="542" unicode="y" d="M113 -177q9 0 26.5 1t26.5 6q4 2 9.5 9.5t14.5 25.5t23 50.5t35 84.5l-232 520h53l206 -471l193 471h49l-285 -684q-15 -36 -39.5 -47.5t-59.5 -11.5h-10t-10 1v45z"/>
<glyph glyph-name="z" horiz-adv-x="485" unicode="z" d="M29 36l369 445h-362v39h417v-36l-367 -445h366v-39h-423v36z"/>
<glyph glyph-name="braceleft" horiz-adv-x="238" unicode="{" d="M139 697v-277q0 -10 -4.5 -28t-20.5 -32q16 -14 20.5 -32.5t4.5 -27.5v-288h55v-43h-79q-8 0 -15.5 6.5t-7.5 23.5v290q0 18 -8.5 34t-26.5 18v40q10 0 17 6t11 14t5.5 16.5t1.5 13.5v279q0 20 9 25t14 5h79v-43h-55z"/>
<glyph glyph-name="bar" horiz-adv-x="215" unicode="|" d="M85 -130v905h45v-905h-45z"/>
<glyph glyph-name="braceright" horiz-adv-x="238" unicode="}" d="M45 697v43h79q4 0 13.5 -5t9.5 -25v-279q0 -5 1.5 -13.5t5.5 -16.5t10.5 -14t17.5 -6v-40q-19 -2 -27 -18t-8 -34v-290q0 -17 -7.5 -23.5t-15.5 -6.5h-79v43h55v288q0 9 4.5 27.5t20.5 32.5q-16 14 -20.5 32t-4.5 28v277h-55z"/>
<glyph glyph-name="asciitilde" horiz-adv-x="493" unicode="~" d="M68 245q0 3 5.5 18.5t17 32.5t30.5 30.5t46 13.5q22 0 41 -9.5t38 -20.5t37.5 -20.5t39.5 -9.5q19 0 32 7.5t21 17t12 18t4 10.5h34q0 -2 -5 -15.5t-17 -30t-32 -29.5t-50 -13q-24 0 -45 9t-40 20.5t-36.5 20.5t-34.5 9t-29 -9t-19.5 -20t-11.5 -20t-4 -10h-34z"/>
<glyph glyph-name="uni00A0" horiz-adv-x="261" unicode=" "/>
<glyph glyph-name="exclamdown" horiz-adv-x="232" unicode="¡" d="M141 716v-102h-50v102h50zM141 498v-499h-50v499h50z"/>
<glyph glyph-name="cent" horiz-adv-x="560" unicode="¢" d="M99 258q0 -41 13.5 -78.5t38 -67.5t57.5 -49.5t72 -24.5v443q-43 -3 -76.5 -23.5t-57 -52t-35.5 -70t-12 -77.5zM280 -120v111q-51 4 -93.5 28.5t-73.5 61.5t-48 83t-17 94q0 51 16.5 98t46.5 83.5t73 60.5t96 28v117h30v-117q76 -2 124.5 -34t75.5 -86l-48 -16 q-25 45 -64.5 67t-87.5 24v-447q21 0 46.5 7t48 19.5t39.5 30t23 38.5l50 -14q-12 -32 -35 -55.5t-52 -39.5t-60.5 -24t-59.5 -8v-110h-30z"/>
<glyph glyph-name="sterling" horiz-adv-x="493" unicode="£" d="M53 370h100q-12 22 -24.5 43t-23 42t-17.5 43.5t-7 47.5q0 35 14 65.5t37.5 53.5t55 36.5t67.5 13.5q53 0 99 -28.5t75 -76.5l-31 -31q-24 43 -63 68t-82 25q-26 0 -48.5 -10t-39.5 -27.5t-26.5 -40.5t-9.5 -50q0 -23 7 -44.5t18 -42.5t24 -42.5t24 -44.5h176v-41h-159 q6 -18 9.5 -37t3.5 -40q0 -26 -6 -50t-19 -49t-34 -52t-51 -60q38 8 73 8q22 0 40 -3t35 -6.5t34 -6.5t35 -3q20 0 42 4.5t51 14.5l13 -40q-54 -24 -108 -24q-22 0 -41.5 3.5t-38.5 7.5t-39 7.5t-43 3.5t-51 -4t-51 -10l-16 37q37 37 62 67t40 55.5t21 48.5t6 48q0 22 -4 42 t-11 38h-118v41z"/>
<glyph glyph-name="yen" horiz-adv-x="669" unicode="¥" d="M413 357h88v-38h-110l-32 -51v-26h142v-37h-142v-205h-51v205h-141v37h141v28l-30 49h-111v38h89l-227 353h57l248 -393l249 393h56z"/>
<glyph glyph-name="brokenbar" horiz-adv-x="219" unicode="¦" d="M132 775v-410h-45v410h45zM132 280v-410h-45v410h45z"/>
<glyph glyph-name="section" horiz-adv-x="506" unicode="§" d="M125 336q0 -35 12.5 -56t32.5 -33t45.5 -17t52 -8t51 -6.5t42.5 -10.5q15 13 24 34.5t9 44.5q0 31 -14 52t-35.5 34t-47.5 18t-50 5q-55 0 -95 17q-12 -12 -19.5 -32.5t-7.5 -41.5zM409 190q49 -30 49 -106q0 -43 -18.5 -75.5t-47 -54t-63 -32t-67.5 -10.5 q-34 0 -62.5 7.5t-52.5 20t-43.5 28.5t-35.5 32l33 31q38 -36 76.5 -53.5t83.5 -17.5q26 0 52 8.5t47 24t34 38.5t13 52q0 31 -12.5 50.5t-32.5 30t-45 14.5t-49 5q-41 2 -76 12t-60.5 29.5t-40.5 48.5t-15 68q0 27 8.5 51t19.5 38q-23 16 -38.5 47t-15.5 72q0 38 17 68.5 t44 52.5t61 33.5t69 11.5q72 0 112.5 -25.5t65.5 -62.5l-40 -18q-9 18 -24.5 29.5t-34 18t-38.5 9.5t-38 3q-26 0 -52 -8t-46 -23.5t-32.5 -38t-12.5 -50.5q0 -32 10.5 -53t30 -34t45.5 -19t58 -7q36 -1 71.5 -9t63 -26t45 -46.5t17.5 -70.5q0 -29 -9.5 -54t-23.5 -40z"/>
<glyph glyph-name="dieresis" horiz-adv-x="294" unicode="¨" d="M193 640v88h44v-88h-44zM57 640v88h44v-88h-44z"/>
<glyph glyph-name="copyright" horiz-adv-x="836" unicode="©" d="M425 124q-43 0 -84 16t-73 46t-51.5 73t-19.5 96q0 41 13 82.5t40.5 75t69 54.5t98.5 21q63 0 112.5 -27t71.5 -80l-48 -16q-11 24 -28 39.5t-35.5 24t-38 11.5t-34.5 3q-43 0 -75 -17t-53 -44t-31.5 -60.5t-10.5 -66.5q0 -45 16 -79.5t41.5 -58t56 -36t59.5 -12.5 q20 0 41 5.5t40.5 16t35 26t24.5 34.5l48 -14q-6 -17 -21.5 -36.5t-39.5 -36.5t-55.5 -28.5t-68.5 -11.5zM418 21q71 0 132.5 24t106.5 68t71 104.5t26 134.5q0 72 -25.5 133.5t-70.5 106.5t-106.5 70t-133.5 25t-133.5 -25t-106.5 -69.5t-70.5 -105.5t-25.5 -133 q0 -71 25.5 -132t70.5 -105.5t106.5 -70t133.5 -25.5zM417 -7q-78 0 -145 27.5t-115.5 76t-76 114.5t-27.5 144q0 77 27.5 143t76 114t115.5 75.5t145 27.5q79 0 146.5 -27.5t116.5 -75.5t76.5 -114t27.5 -143q0 -78 -27.5 -144t-76.5 -114.5t-116.5 -76t-146.5 -27.5z"/>
<glyph glyph-name="ordfeminine" horiz-adv-x="431" unicode="ª" d="M180 386q22 0 44.5 6t40.5 16t29 23t11 28v55q-23 10 -48.5 13.5t-51.5 3.5q-49 0 -79.5 -19.5t-30.5 -51.5t24.5 -53t60.5 -21zM167 348q-25 0 -46.5 8.5t-37.5 23t-25 34.5t-9 43q0 47 41.5 76.5t107.5 29.5q29 0 56.5 -4.5t50.5 -13.5v31q0 45 -27 71.5t-75 26.5 q-53 0 -114 -41l-18 31q70 46 136 46q68 0 107 -36.5t39 -103.5v-153q0 -18 17 -20v-43q-4 -1 -7.5 -1h-6.5q-20 0 -31.5 8.5t-12.5 25.5l-1 26q-25 -32 -62.5 -48.5t-81.5 -16.5z"/>
<glyph glyph-name="guillemotleft" horiz-adv-x="558" unicode="«" d="M248 273l244 175v-45l-202 -144l202 -143v-45l-244 172v30zM46 273l245 175v-45l-203 -144l203 -143v-45l-245 172v30z"/>
<glyph glyph-name="logicalnot" horiz-adv-x="582" unicode="¬" d="M509 354v-223h-45v177h-381v46h426z"/>
<glyph glyph-name="uni00AD" horiz-adv-x="562" unicode="­" d="M68 249v46h426v-46h-426z"/>
<glyph glyph-name="registered" horiz-adv-x="836" unicode="®" d="M460 334q45 0 68 31t23 74q0 45 -26.5 74.5t-68.5 29.5h-147v-209h151zM268 581h190q29 0 53.5 -12.5t42 -32.5t27.5 -45.5t10 -51.5q0 -25 -8 -48t-22 -41.5t-34 -31t-44 -15.5l113 -178h-46l-109 173h-132v-173h-41v456zM418 21q71 0 132 24t106 68t71 105.5t26 136.5 q0 71 -25 131.5t-70 105t-106.5 70t-133.5 25.5t-133.5 -25.5t-106.5 -70t-70 -105t-25 -131.5q0 -72 25 -133t70 -105.5t106.5 -70t133.5 -25.5zM418 -7q-79 0 -146 27.5t-115.5 76t-76 114.5t-27.5 144q0 77 27.5 143t76 114t115.5 75.5t146 27.5t146 -27.5t116 -75.5 t76.5 -114t27.5 -143q0 -78 -27.5 -144t-76.5 -114.5t-116 -76t-146 -27.5z"/>
<glyph glyph-name="macron" horiz-adv-x="390" unicode="¯" d="M53 672v37h285v-37h-285z"/>
<glyph glyph-name="degree" horiz-adv-x="261" unicode="°" d="M98 679q-13 -15 -13 -33q0 -19 13 -32q6 -6 14 -10t18 -4t18.5 4t14.5 10q13 13 13 32q0 18 -13 33q-12 13 -33 13q-20 0 -32 -13zM53 647q0 32 22.5 54.5t54.5 22.5q33 0 55.5 -22.5t22.5 -54.5q0 -34 -22.5 -56.5t-55.5 -22.5q-32 0 -54.5 23t-22.5 56z"/>
<glyph glyph-name="plusminus" horiz-adv-x="457" unicode="±" d="M386 382v-43h-134v-144h-47v144h-133v43h133v144h47v-144h134zM72 70v43h314v-43h-314z"/>
<glyph glyph-name="twosuperior" horiz-adv-x="382" unicode="²" d="M38 333q0 38 8 66.5t24 49.5t39.5 36t53.5 27q23 9 47.5 17t44.5 19.5t33 28t13 40.5q0 32 -26 56t-80 24q-26 0 -46.5 -6t-36.5 -14.5t-27 -18.5t-18 -18l-24 24q3 4 14 15t30.5 22.5t47.5 20.5t65 9q35 0 61.5 -9t44 -25t26 -36.5t8.5 -44.5q0 -31 -14.5 -52t-36 -35 t-46 -23t-45.5 -16q-36 -12 -57 -27.5t-32 -32t-14.5 -33t-3.5 -30.5h247v-34h-300z"/>
<glyph glyph-name="threesuperior" horiz-adv-x="388" unicode="³" d="M191 327q-63 0 -105 25t-48 67l23 21q1 -14 11 -28t27 -25t40.5 -17.5t50.5 -6.5q51 0 86 21t35 55q0 37 -40.5 58t-108.5 21h-23v32h23q64 0 99.5 17.5t35.5 52.5q0 18 -9 32t-24 24.5t-35.5 16t-43.5 5.5q-42 0 -72.5 -15.5t-44.5 -41.5l-25 26q17 29 56 46.5t86 17.5 q32 0 59.5 -8.5t47.5 -23t31.5 -34.5t11.5 -43q0 -69 -90 -87q47 -8 74.5 -35.5t27.5 -65.5q0 -24 -12.5 -44t-33.5 -34t-49.5 -21.5t-60.5 -7.5z"/>
<glyph glyph-name="acute" horiz-adv-x="213" unicode="´" d="M84 629l-35 16l61 85h58z"/>
<glyph glyph-name="mu" horiz-adv-x="588" unicode="µ" d="M83 520h50v-293q0 -192 132 -192q33 0 64 11.5t58 32t47.5 49.5t32.5 64v328h50v-450q0 -25 21 -25v-45q-6 -1 -10 -1h-8q-20 0 -34 12.5t-14 32.5v79q-15 -29 -37 -53.5t-49.5 -42t-58.5 -27.5t-64 -10q-51 0 -83.5 24.5t-48.5 67.5v-294h-48v732z"/>
<glyph glyph-name="paragraph" horiz-adv-x="584" unicode="¶" d="M430 669h-81v-390h81v390zM81 474q0 -50 18 -86t48.5 -59.5t71 -35.5t85.5 -14v390q-109 -1 -166 -52.5t-57 -142.5zM37 473q0 112 74 174.5t208 62.5h225v-41h-70v-749h-44v317h-81v-317h-45v317q-62 1 -111.5 17.5t-84 47t-53 73.5t-18.5 98z"/>
<glyph glyph-name="periodcentered" horiz-adv-x="180" unicode="·" d="M68 248v101h44v-101h-44z"/>
<glyph glyph-name="cedilla" horiz-adv-x="271" unicode="¸" d="M37 -125q14 -7 37.5 -13t49.5 -6q58 0 58 37q0 20 -13.5 28t-35.5 8q-21 0 -44 -5t-37 -9l56 100l27 -12l-34 -56q9 4 20.5 5t19.5 1q34 0 53 -15t19 -44q0 -32 -24 -48.5t-69 -16.5q-29 0 -53.5 5.5t-43.5 13.5z"/>
<glyph glyph-name="onesuperior" horiz-adv-x="265" unicode="¹" d="M242 367v-35h-193v35h81v322q-5 -6 -16 -14.5t-24.5 -16t-28.5 -12.5t-27 -5v35q16 0 33 8t31 18t23 19t9 10h36v-364h76z"/>
<glyph glyph-name="ordmasculine" horiz-adv-x="450" unicode="º" d="M95 527q0 -29 10 -53.5t27.5 -43.5t41 -29.5t50.5 -10.5t50.5 11t41.5 30t28 44t10 54t-10 54t-28 43.5t-41.5 29t-50.5 10.5q-26 0 -49.5 -11t-41 -29.5t-28 -44t-10.5 -54.5zM224 348q-39 0 -71.5 14.5t-56.5 39.5t-37 57.5t-13 68.5q0 37 13.5 70t37 58t56 39.5 t71.5 14.5t72 -14.5t56.5 -39.5t37 -58t13.5 -70q0 -36 -13 -68.5t-37 -57.5t-57 -39.5t-72 -14.5z"/>
<glyph glyph-name="guillemotright" horiz-adv-x="558" unicode="»" d="M310 243l-244 -172v45l202 143l-202 144v45l244 -175v-30zM512 243l-244 -172v45l202 143l-202 144v45l244 -175v-30z"/>
<glyph glyph-name="onequarter" horiz-adv-x="803" unicode="¼" d="M123 21l280 344l274 348l28 -23l-280 -345l-274 -348zM254 367v-35h-193v35h81v322q-5 -6 -16 -14.5t-24.5 -16t-28.5 -12.5t-27 -5v35q16 0 33 8t31 18t23 19t9 10h36v-364h76zM481 140h190v202zM671 0v106h-230v32l240 255h25v-253h57v-34h-57v-106h-35z"/>
<glyph glyph-name="onehalf" horiz-adv-x="845" unicode="½" d="M91 21l280 344l274 348l28 -23l-280 -345l-274 -348zM258 367v-35h-193v35h81v322q-5 -6 -16 -14.5t-24.5 -16t-28.5 -12.5t-27 -5v35q16 0 33 8t31 18t23 19t9 10h36v-364h76zM501 0q0 76 32 116.5t92 63.5q22 9 46 17t43.5 19t32.5 27.5t13 40.5q0 32 -25 56t-79 24 q-26 0 -46 -6t-35.5 -14.5t-26.5 -18.5t-18 -19l-24 25q3 4 14 15t30 22.5t47 20.5t64 9q69 0 103.5 -33.5t34.5 -81.5q0 -31 -14 -52t-35 -35t-45.5 -23t-45.5 -16q-35 -12 -56 -27.5t-32 -32t-14 -33t-3 -30.5h246v-34h-299z"/>
<glyph glyph-name="threequarters" horiz-adv-x="819" unicode="¾" d="M158 21l280 344l274 348l28 -23l-280 -345l-274 -348zM492 140h190v202zM682 0v106h-230v32l240 255h25v-253h57v-34h-57v-106h-35zM199 327q-63 0 -105 25t-48 67l23 21q1 -14 11 -28t27 -25t40.5 -17.5t50.5 -6.5q51 0 86 21t35 55q0 37 -40.5 58t-108.5 21h-23v32h23 q64 0 99.5 17.5t35.5 52.5q0 18 -9 32t-24 24.5t-35.5 16t-43.5 5.5q-42 0 -72.5 -15.5t-44.5 -41.5l-25 26q17 29 56 46.5t86 17.5q32 0 59.5 -8.5t47.5 -23t31.5 -34.5t11.5 -43q0 -69 -90 -87q47 -8 74.5 -35.5t27.5 -65.5q0 -24 -12.5 -44t-33.5 -34t-49.5 -21.5 t-60.5 -7.5z"/>
<glyph glyph-name="questiondown" horiz-adv-x="469" unicode="¿" d="M307 506v-98h-44v98h44zM308 313q0 -39 -5.5 -67t-16.5 -48.5t-27 -35t-36 -26.5q-21 -12 -46 -24.5t-46.5 -30t-35.5 -43.5t-14 -65q0 -36 12.5 -63t33 -45t47 -26.5t54.5 -8.5q57 0 103 30t69 78l36 -22q-14 -31 -36 -55t-49.5 -40.5t-59 -25t-63.5 -8.5 q-37 0 -71.5 12t-61.5 35.5t-43 59t-16 82.5q0 42 13.5 71t35 50t48.5 35.5t53 27.5q17 9 31.5 19t25 26.5t16 42.5t5.5 65h44z"/>
<glyph glyph-name="Agrave" horiz-adv-x="681" unicode="À" d="M257 918h57l62 -85l-34 -16zM341 648l-158 -372h313zM18 0l302 710h42l302 -710h-55l-99 234h-339l-99 -234h-54z"/>
<glyph glyph-name="Aacute" horiz-adv-x="681" unicode="Á" d="M340 816l-35 16l61 85h58zM341 648l-158 -372h313zM18 0l302 710h42l302 -710h-55l-99 234h-339l-99 -234h-54z"/>
<glyph glyph-name="Acircumflex" horiz-adv-x="681" unicode="Â" d="M226 836l96 81h37l97 -81l-30 -17l-85 63l-85 -63zM341 648l-158 -372h313zM18 0l302 710h42l302 -710h-55l-99 234h-339l-99 -234h-54z"/>
<glyph glyph-name="Atilde" horiz-adv-x="681" unicode="Ã" d="M402 834q-22 0 -39 6t-31 13.5t-27.5 14t-28.5 6.5q-17 0 -27 -7t-15 -15.5t-7 -16t-2 -9.5h-34q0 4 3 17.5t12.5 28t26 26t43.5 11.5q20 0 35.5 -6.5t29.5 -14t28.5 -13.5t33.5 -6q20 0 31.5 7t17 15.5t7 16t1.5 9.5h34q0 -5 -3.5 -18.5t-13 -27.5t-27.5 -25.5 t-48 -11.5zM341 648l-158 -372h313zM18 0l302 710h42l302 -710h-55l-99 234h-339l-99 -234h-54z"/>
<glyph glyph-name="Adieresis" horiz-adv-x="681" unicode="Ä" d="M387 828v88h44v-88h-44zM251 828v88h44v-88h-44zM341 648l-158 -372h313zM18 0l302 710h42l302 -710h-55l-99 234h-339l-99 -234h-54z"/>
<glyph glyph-name="Aring" horiz-adv-x="681" unicode="Å" d="M341 894q-17 0 -28.5 -10.5t-11.5 -28.5q0 -17 11.5 -28.5t28.5 -11.5q16 0 28.5 11.5t12.5 28.5q0 18 -12 28.5t-29 10.5zM273 855q0 27 19.5 44.5t48.5 17.5t48.5 -17.5t19.5 -44.5q0 -28 -19.5 -45.5t-48.5 -17.5t-48.5 17.5t-19.5 45.5zM341 648l-158 -372h313zM18 0 l302 710h42l302 -710h-55l-99 234h-339l-99 -234h-54z"/>
<glyph glyph-name="AE" horiz-adv-x="994" unicode="Æ" d="M474 280v366l-239 -366h239zM464 710h473v-46h-410v-278h356v-47h-356v-293h419v-46h-469v234h-267l-151 -234h-57z"/>
<glyph glyph-name="Ccedilla" horiz-adv-x="695" unicode="Ç" d="M304 -125q14 -7 37.5 -13t49.5 -6q58 0 58 37q0 20 -13.5 28t-35.5 8q-21 0 -44 -5t-37 -9l44 80q-70 3 -128 36t-99.5 84t-64.5 115t-23 130q0 64 22.5 127.5t65.5 113.5t105.5 81.5t142.5 31.5q95 0 162 -43.5t99 -111.5l-42 -24q-18 37 -43.5 62t-55 40.5t-61.5 22.5 t-63 7q-68 0 -120 -27.5t-88 -71.5t-54.5 -99.5t-18.5 -111.5q0 -63 22 -120t60 -100.5t90 -69.5t112 -26q32 0 65.5 8t65 25t58.5 43.5t45 62.5l43 -21q-17 -38 -45.5 -67.5t-64 -50.5t-75 -32.5t-78.5 -13.5l-29 -48q9 4 20.5 5t19.5 1q34 0 53 -15t19 -44 q0 -32 -24 -48.5t-69 -16.5q-29 0 -53.5 5.5t-43.5 13.5z"/>
<glyph glyph-name="Egrave" horiz-adv-x="615" unicode="È" d="M257 918h57l62 -85l-34 -16zM567 46v-46h-473v710h464v-46h-413v-279h361v-44h-361v-295h422z"/>
<glyph glyph-name="Eacute" horiz-adv-x="615" unicode="É" d="M567 46v-46h-473v710h464v-46h-413v-279h361v-44h-361v-295h422zM340 816l-35 16l61 85h58z"/>
<glyph glyph-name="Ecircumflex" horiz-adv-x="615" unicode="Ê" d="M567 46v-46h-473v710h464v-46h-413v-279h361v-44h-361v-295h422zM226 836l96 81h37l97 -81l-30 -17l-85 63l-85 -63z"/>
<glyph glyph-name="Edieresis" horiz-adv-x="615" unicode="Ë" d="M567 46v-46h-473v710h464v-46h-413v-279h361v-44h-361v-295h422zM387 828v88h44v-88h-44zM251 828v88h44v-88h-44z"/>
<glyph glyph-name="Igrave" horiz-adv-x="239" unicode="Ì" d="M35 918h57l62 -85l-34 -16zM94 0v709h51v-709h-51z"/>
<glyph glyph-name="Iacute" horiz-adv-x="239" unicode="Í" d="M119 816l-35 16l61 85h58zM94 0v709h51v-709h-51z"/>
<glyph glyph-name="Icircumflex" horiz-adv-x="239" unicode="Î" d="M5 836l96 81h37l97 -81l-30 -17l-85 63l-85 -63zM94 0v709h51v-709h-51z"/>
<glyph glyph-name="Idieresis" horiz-adv-x="239" unicode="Ï" d="M165 828v88h44v-88h-44zM29 828v88h44v-88h-44zM94 0v709h51v-709h-51z"/>
<glyph glyph-name="Eth" horiz-adv-x="724" unicode="Ð" d="M622 356q0 67 -19 123.5t-55.5 97.5t-89.5 64t-122 23h-185v-286h178v-42h-178v-290h185q70 0 123.5 23.5t89.5 65.5t54.5 98.5t18.5 122.5zM100 0v336h-65v42h65v332h236q84 0 147.5 -28t105.5 -76t63 -112.5t21 -137.5q0 -81 -23.5 -146.5t-67.5 -112t-106.5 -72 t-139.5 -25.5h-236z"/>
<glyph glyph-name="Ntilde" horiz-adv-x="776" unicode="Ñ" d="M453 834q-22 0 -39 6t-31 13.5t-27.5 14t-28.5 6.5q-17 0 -27 -7t-15 -15.5t-7 -16t-2 -9.5h-34q0 4 3 17.5t12.5 28t26 26t43.5 11.5q20 0 35.5 -6.5t29.5 -14t28.5 -13.5t33.5 -6q20 0 31.5 7t17 15.5t7 16t1.5 9.5h34q0 -5 -3.5 -18.5t-13 -27.5t-27.5 -25.5 t-48 -11.5zM145 614v-614h-51v710h39l498 -625v624h51v-709h-47z"/>
<glyph glyph-name="Ograve" d="M297 918h57l62 -85l-34 -16zM99 355q0 -61 20.5 -117.5t58 -100t89 -69.5t113.5 -26q64 0 115.5 27t88.5 71.5t57 100.5t20 114q0 61 -21 117.5t-58.5 100t-89 69.5t-112.5 26q-64 0 -116 -27t-88.5 -71.5t-56.5 -100.5t-20 -114zM380 -5q-74 0 -135 31t-105 81t-68 115 t-24 133q0 71 25.5 136t70 115t105.5 79.5t132 29.5q74 0 135 -31.5t104.5 -82.5t67.5 -115.5t24 -130.5q0 -72 -25.5 -137t-70 -114.5t-105 -79t-131.5 -29.5z" unicode="Ò"/>
<glyph glyph-name="Oacute" d="M99 355q0 -61 20.5 -117.5t58 -100t89 -69.5t113.5 -26q64 0 115.5 27t88.5 71.5t57 100.5t20 114q0 61 -21 117.5t-58.5 100t-89 69.5t-112.5 26q-64 0 -116 -27t-88.5 -71.5t-56.5 -100.5t-20 -114zM380 -5q-74 0 -135 31t-105 81t-68 115t-24 133q0 71 25.5 136 t70 115t105.5 79.5t132 29.5q74 0 135 -31.5t104.5 -82.5t67.5 -115.5t24 -130.5q0 -72 -25.5 -137t-70 -114.5t-105 -79t-131.5 -29.5zM380 816l-35 16l61 85h58z" unicode="Ó"/>
<glyph glyph-name="Ocircumflex" d="M99 355q0 -61 20.5 -117.5t58 -100t89 -69.5t113.5 -26q64 0 115.5 27t88.5 71.5t57 100.5t20 114q0 61 -21 117.5t-58.5 100t-89 69.5t-112.5 26q-64 0 -116 -27t-88.5 -71.5t-56.5 -100.5t-20 -114zM380 -5q-74 0 -135 31t-105 81t-68 115t-24 133q0 71 25.5 136 t70 115t105.5 79.5t132 29.5q74 0 135 -31.5t104.5 -82.5t67.5 -115.5t24 -130.5q0 -72 -25.5 -137t-70 -114.5t-105 -79t-131.5 -29.5zM266 836l96 81h37l97 -81l-30 -17l-85 63l-85 -63z" unicode="Ô"/>
<glyph glyph-name="Otilde" d="M442 834q-22 0 -39 6t-31 13.5t-27.5 14t-28.5 6.5q-17 0 -27 -7t-15 -15.5t-7 -16t-2 -9.5h-34q0 4 3 17.5t12.5 28t26 26t43.5 11.5q20 0 35.5 -6.5t29.5 -14t28.5 -13.5t33.5 -6q20 0 31.5 7t17 15.5t7 16t1.5 9.5h34q0 -5 -3.5 -18.5t-13 -27.5t-27.5 -25.5 t-48 -11.5zM99 355q0 -61 20.5 -117.5t58 -100t89 -69.5t113.5 -26q64 0 115.5 27t88.5 71.5t57 100.5t20 114q0 61 -21 117.5t-58.5 100t-89 69.5t-112.5 26q-64 0 -116 -27t-88.5 -71.5t-56.5 -100.5t-20 -114zM380 -5q-74 0 -135 31t-105 81t-68 115t-24 133 q0 71 25.5 136t70 115t105.5 79.5t132 29.5q74 0 135 -31.5t104.5 -82.5t67.5 -115.5t24 -130.5q0 -72 -25.5 -137t-70 -114.5t-105 -79t-131.5 -29.5z" unicode="Õ"/>
<glyph glyph-name="Odieresis" d="M99 355q0 -61 20.5 -117.5t58 -100t89 -69.5t113.5 -26q64 0 115.5 27t88.5 71.5t57 100.5t20 114q0 61 -21 117.5t-58.5 100t-89 69.5t-112.5 26q-64 0 -116 -27t-88.5 -71.5t-56.5 -100.5t-20 -114zM380 -5q-74 0 -135 31t-105 81t-68 115t-24 133q0 71 25.5 136 t70 115t105.5 79.5t132 29.5q74 0 135 -31.5t104.5 -82.5t67.5 -115.5t24 -130.5q0 -72 -25.5 -137t-70 -114.5t-105 -79t-131.5 -29.5zM427 828v88h44v-88h-44zM291 828v88h44v-88h-44z" unicode="Ö"/>
<glyph glyph-name="multiply" horiz-adv-x="458" unicode="×" d="M388 145l-33 -32l-126 126l-127 -126l-32 33l125 125l-125 127l33 32l126 -126l126 127l32 -33l-126 -127z"/>
<glyph glyph-name="Oslash" d="M661 355q0 68 -26 129.5t-71 106.5l-331 -504q32 -21 68.5 -33t78.5 -12q64 0 115.5 27t88.5 71.5t57 100.5t20 114zM99 355q0 -69 25.5 -131t71.5 -107l330 505q-32 22 -68.5 34t-77.5 12q-64 0 -116 -27t-88.5 -71.5t-56.5 -100.5t-20 -114zM642 710l-51 -78 q57 -53 89 -126.5t32 -150.5q0 -72 -25.5 -137t-70 -114.5t-105 -79t-131.5 -29.5q-49 1 -92.5 14.5t-80.5 38.5l-31 -48h-57l50 77q-57 52 -89 125t-32 153q0 71 25.5 136t70 115t105.5 79.5t132 29.5q49 0 92 -14t79 -39l32 48h58z" unicode="Ø"/>
<glyph glyph-name="Ugrave" horiz-adv-x="757" unicode="Ù" d="M295 918h57l62 -85l-34 -16zM378 42q72 0 119.5 27t75.5 71t39.5 100t11.5 113v357h51v-357q0 -71 -15.5 -136t-50.5 -114.5t-91.5 -78.5t-138.5 -29q-84 0 -141 30.5t-91.5 81t-49 114.5t-14.5 132v357h51v-357q0 -59 11.5 -115t39.5 -99.5t75 -70t118 -26.5z"/>
<glyph glyph-name="Uacute" horiz-adv-x="757" unicode="Ú" d="M378 42q72 0 119.5 27t75.5 71t39.5 100t11.5 113v357h51v-357q0 -71 -15.5 -136t-50.5 -114.5t-91.5 -78.5t-138.5 -29q-84 0 -141 30.5t-91.5 81t-49 114.5t-14.5 132v357h51v-357q0 -59 11.5 -115t39.5 -99.5t75 -70t118 -26.5zM378 816l-35 16l61 85h58z"/>
<glyph glyph-name="Ucircumflex" horiz-adv-x="757" unicode="Û" d="M378 42q72 0 119.5 27t75.5 71t39.5 100t11.5 113v357h51v-357q0 -71 -15.5 -136t-50.5 -114.5t-91.5 -78.5t-138.5 -29q-84 0 -141 30.5t-91.5 81t-49 114.5t-14.5 132v357h51v-357q0 -59 11.5 -115t39.5 -99.5t75 -70t118 -26.5zM264 836l96 81h37l97 -81l-30 -17 l-85 63l-85 -63z"/>
<glyph glyph-name="Udieresis" horiz-adv-x="757" unicode="Ü" d="M378 42q72 0 119.5 27t75.5 71t39.5 100t11.5 113v357h51v-357q0 -71 -15.5 -136t-50.5 -114.5t-91.5 -78.5t-138.5 -29q-84 0 -141 30.5t-91.5 81t-49 114.5t-14.5 132v357h51v-357q0 -59 11.5 -115t39.5 -99.5t75 -70t118 -26.5zM425 828v88h44v-88h-44zM289 828v88h44 v-88h-44z"/>
<glyph glyph-name="Yacute" horiz-adv-x="631" unicode="Ý" d="M314 816l-35 16l61 85h58zM67 710l248 -393l250 393h56l-280 -442v-268h-51v270l-279 440h56z"/>
<glyph glyph-name="Thorn" horiz-adv-x="606" unicode="Þ" d="M372 171q35 0 63 15t47.5 39.5t30 55.5t10.5 64q0 34 -12.5 65.5t-34 55.5t-50 38.5t-61.5 14.5h-220v-348h227zM367 566q45 0 83 -19t65.5 -50.5t43 -71t15.5 -80.5q0 -43 -14.5 -83t-41 -70.5t-63.5 -49t-82 -18.5h-228v-124h-51v710h51v-144h222z"/>
<glyph glyph-name="germandbls" horiz-adv-x="549" unicode="ß" d="M233 40q104 2 163 44t59 124q0 38 -13 69t-37 53.5t-57.5 34.5t-73.5 12h-18v47h17q29 0 53.5 9t42.5 25.5t28 39t10 49.5q0 28 -11 50.5t-29.5 38.5t-44 24.5t-53.5 8.5q-35 0 -61.5 -12.5t-45 -34t-28 -51.5t-9.5 -65v-506h-48v513q0 45 14.5 82t40 63.5t61 41 t78.5 14.5q39 0 72.5 -12t58.5 -33t39 -50.5t14 -63.5q0 -27 -9 -52t-24 -45.5t-35 -35t-43 -19.5q78 -17 120.5 -69.5t42.5 -128.5q0 -99 -73.5 -153t-200.5 -58v46z"/>
<glyph glyph-name="agrave" horiz-adv-x="539" unicode="à" d="M176 730h57l62 -85l-34 -16zM216 30q58 0 107 21.5t73 58.5q17 20 17 40v92q-76 28 -156 28q-78 0 -126 -32t-48 -84q0 -26 10 -49t28 -39.5t42.5 -26t52.5 -9.5zM206 -10q-36 0 -67.5 12.5t-55 34t-36.5 51t-13 63.5t16 62t45 48.5t68.5 32t87.5 11.5q42 0 85 -7.5 t77 -20.5v51q0 74 -42 117.5t-114 43.5q-39 0 -81.5 -16t-85.5 -46l-20 34q101 68 190 68q94 0 148.5 -54.5t54.5 -150.5v-254q0 -25 21 -25v-45q-5 -1 -9.5 -1h-8.5q-18 0 -33 12.5t-15 32.5v43q-36 -47 -91.5 -72t-120.5 -25z"/>
<glyph glyph-name="aacute" horiz-adv-x="539" unicode="á" d="M260 629l-35 16l61 85h58zM216 30q58 0 107 21.5t73 58.5q17 20 17 40v92q-76 28 -156 28q-78 0 -126 -32t-48 -84q0 -26 10 -49t28 -39.5t42.5 -26t52.5 -9.5zM206 -10q-36 0 -67.5 12.5t-55 34t-36.5 51t-13 63.5t16 62t45 48.5t68.5 32t87.5 11.5q42 0 85 -7.5 t77 -20.5v51q0 74 -42 117.5t-114 43.5q-39 0 -81.5 -16t-85.5 -46l-20 34q101 68 190 68q94 0 148.5 -54.5t54.5 -150.5v-254q0 -25 21 -25v-45q-5 -1 -9.5 -1h-8.5q-18 0 -33 12.5t-15 32.5v43q-36 -47 -91.5 -72t-120.5 -25z"/>
<glyph glyph-name="acircumflex" horiz-adv-x="539" unicode="â" d="M146 649l96 81h37l97 -81l-30 -17l-85 63l-85 -63zM216 30q58 0 107 21.5t73 58.5q17 20 17 40v92q-76 28 -156 28q-78 0 -126 -32t-48 -84q0 -26 10 -49t28 -39.5t42.5 -26t52.5 -9.5zM206 -10q-36 0 -67.5 12.5t-55 34t-36.5 51t-13 63.5t16 62t45 48.5t68.5 32 t87.5 11.5q42 0 85 -7.5t77 -20.5v51q0 74 -42 117.5t-114 43.5q-39 0 -81.5 -16t-85.5 -46l-20 34q101 68 190 68q94 0 148.5 -54.5t54.5 -150.5v-254q0 -25 21 -25v-45q-5 -1 -9.5 -1h-8.5q-18 0 -33 12.5t-15 32.5v43q-36 -47 -91.5 -72t-120.5 -25z"/>
<glyph glyph-name="atilde" horiz-adv-x="539" unicode="ã" d="M322 647q-22 0 -39 6t-31 13.5t-27.5 14t-28.5 6.5q-17 0 -27 -7t-15 -15.5t-7 -16t-2 -9.5h-34q0 4 3 17.5t12.5 28t26 26t43.5 11.5q20 0 35.5 -6.5t29.5 -14t28.5 -13.5t33.5 -6q20 0 31.5 7t17 15.5t7 16t1.5 9.5h34q0 -5 -3.5 -18.5t-13 -27.5t-27.5 -25.5 t-48 -11.5zM216 30q58 0 107 21.5t73 58.5q17 20 17 40v92q-76 28 -156 28q-78 0 -126 -32t-48 -84q0 -26 10 -49t28 -39.5t42.5 -26t52.5 -9.5zM206 -10q-36 0 -67.5 12.5t-55 34t-36.5 51t-13 63.5t16 62t45 48.5t68.5 32t87.5 11.5q42 0 85 -7.5t77 -20.5v51 q0 74 -42 117.5t-114 43.5q-39 0 -81.5 -16t-85.5 -46l-20 34q101 68 190 68q94 0 148.5 -54.5t54.5 -150.5v-254q0 -25 21 -25v-45q-5 -1 -9.5 -1h-8.5q-18 0 -33 12.5t-15 32.5v43q-36 -47 -91.5 -72t-120.5 -25z"/>
<glyph glyph-name="adieresis" horiz-adv-x="539" unicode="ä" d="M306 640v88h44v-88h-44zM170 640v88h44v-88h-44zM216 30q58 0 107 21.5t73 58.5q17 20 17 40v92q-76 28 -156 28q-78 0 -126 -32t-48 -84q0 -26 10 -49t28 -39.5t42.5 -26t52.5 -9.5zM206 -10q-36 0 -67.5 12.5t-55 34t-36.5 51t-13 63.5t16 62t45 48.5t68.5 32 t87.5 11.5q42 0 85 -7.5t77 -20.5v51q0 74 -42 117.5t-114 43.5q-39 0 -81.5 -16t-85.5 -46l-20 34q101 68 190 68q94 0 148.5 -54.5t54.5 -150.5v-254q0 -25 21 -25v-45q-5 -1 -9.5 -1h-8.5q-18 0 -33 12.5t-15 32.5v43q-36 -47 -91.5 -72t-120.5 -25z"/>
<glyph glyph-name="aring" horiz-adv-x="539" unicode="å" d="M260 707q-17 0 -28.5 -10.5t-11.5 -28.5q0 -17 11.5 -28.5t28.5 -11.5q16 0 28.5 11.5t12.5 28.5q0 18 -12 28.5t-29 10.5zM192 668q0 27 19.5 44.5t48.5 17.5t48.5 -17.5t19.5 -44.5q0 -28 -19.5 -45.5t-48.5 -17.5t-48.5 17.5t-19.5 45.5zM216 30q58 0 107 21.5 t73 58.5q17 20 17 40v92q-76 28 -156 28q-78 0 -126 -32t-48 -84q0 -26 10 -49t28 -39.5t42.5 -26t52.5 -9.5zM206 -10q-36 0 -67.5 12.5t-55 34t-36.5 51t-13 63.5t16 62t45 48.5t68.5 32t87.5 11.5q42 0 85 -7.5t77 -20.5v51q0 74 -42 117.5t-114 43.5q-39 0 -81.5 -16 t-85.5 -46l-20 34q101 68 190 68q94 0 148.5 -54.5t54.5 -150.5v-254q0 -25 21 -25v-45q-5 -1 -9.5 -1h-8.5q-18 0 -33 12.5t-15 32.5v43q-36 -47 -91.5 -72t-120.5 -25z"/>
<glyph glyph-name="ae" horiz-adv-x="931" unicode="æ" d="M850 277q-3 46 -20 85t-44.5 67t-64 43.5t-78.5 15.5t-79 -16t-64.5 -44t-44 -66.5t-18.5 -84.5h413zM216 30q59 0 107.5 21.5t73.5 58.5q14 19 17 35q-11 23 -17.5 51t-7.5 54q-63 20 -132 20q-39 0 -71 -8.5t-55 -23.5t-35.5 -36.5t-12.5 -47.5t10.5 -49t28.5 -39.5 t42 -26t52 -9.5zM206 -10q-36 0 -67 12.5t-54.5 34t-36.5 51t-13 63.5t16 62t44.5 48.5t68.5 32t88 11.5q35 0 71 -5.5t66 -14.5q3 44 20 84q-11 56 -50.5 88t-101.5 32q-38 0 -80.5 -16t-86.5 -46l-19 34q101 68 190 68q66 0 112 -29t67 -82q33 50 85.5 80.5t116.5 30.5 q55 0 102 -21t81.5 -58t54 -86t19.5 -104v-10.5t-1 -9.5h-461q3 -45 21 -83.5t46.5 -66.5t65.5 -44t78 -16q27 0 53.5 7.5t49 20.5t40 31.5t27.5 40.5l44 -12q-11 -28 -32.5 -51.5t-50 -40.5t-62.5 -26.5t-70 -9.5q-68 0 -123 32t-89 85q-17 -31 -43 -53t-57 -36.5 t-64.5 -21t-64.5 -6.5z"/>
<glyph glyph-name="ccedilla" horiz-adv-x="548" unicode="ç" d="M224 -125q14 -7 37.5 -13t49.5 -6q58 0 58 37q0 20 -13.5 28t-35.5 8q-21 0 -44 -5t-37 -9l42 76q-51 4 -94.5 26.5t-75.5 59.5t-50 84.5t-18 100.5q0 55 19 104t53.5 85t81.5 57t103 21q71 0 124.5 -32t81.5 -89l-49 -16q-23 43 -66 67.5t-94 24.5q-43 0 -80 -17 t-64.5 -47t-43 -70.5t-15.5 -87.5t16.5 -88.5t44 -72t64.5 -48.5t79 -18q27 0 53.5 8t49 21t39 30.5t22.5 36.5l49 -14q-9 -26 -28.5 -48.5t-45.5 -39t-57.5 -27t-65.5 -11.5l-26 -44q9 4 20.5 5t19.5 1q34 0 53 -15t19 -44q0 -32 -24 -48.5t-69 -16.5q-29 0 -53.5 5.5 t-43.5 13.5z"/>
<glyph glyph-name="egrave" horiz-adv-x="584" unicode="è" d="M212 730h57l62 -85l-34 -16zM503 280q-3 46 -20.5 84t-45 65.5t-63.5 43t-77 15.5t-77 -15.5t-63.5 -43t-44 -66t-19.5 -83.5h410zM299 -10q-55 0 -102 21.5t-81.5 59t-54 86.5t-19.5 105q0 55 19.5 103.5t53.5 85t81 57.5t101 21q55 0 101.5 -21.5t80.5 -58t53.5 -85 t19.5 -102.5q0 -5 -0.5 -12.5t-0.5 -9.5h-457q3 -45 21 -83.5t45.5 -66.5t63.5 -44t77 -16q27 0 53.5 7.5t49 20.5t40 31.5t27.5 40.5l44 -12q-12 -28 -33.5 -51.5t-50 -40.5t-62.5 -26.5t-70 -9.5z"/>
<glyph glyph-name="eacute" horiz-adv-x="584" unicode="é" d="M503 280q-3 46 -20.5 84t-45 65.5t-63.5 43t-77 15.5t-77 -15.5t-63.5 -43t-44 -66t-19.5 -83.5h410zM299 -10q-55 0 -102 21.5t-81.5 59t-54 86.5t-19.5 105q0 55 19.5 103.5t53.5 85t81 57.5t101 21q55 0 101.5 -21.5t80.5 -58t53.5 -85t19.5 -102.5q0 -5 -0.5 -12.5 t-0.5 -9.5h-457q3 -45 21 -83.5t45.5 -66.5t63.5 -44t77 -16q27 0 53.5 7.5t49 20.5t40 31.5t27.5 40.5l44 -12q-12 -28 -33.5 -51.5t-50 -40.5t-62.5 -26.5t-70 -9.5zM295 629l-35 16l61 85h58z"/>
<glyph glyph-name="ecircumflex" horiz-adv-x="584" unicode="ê" d="M503 280q-3 46 -20.5 84t-45 65.5t-63.5 43t-77 15.5t-77 -15.5t-63.5 -43t-44 -66t-19.5 -83.5h410zM299 -10q-55 0 -102 21.5t-81.5 59t-54 86.5t-19.5 105q0 55 19.5 103.5t53.5 85t81 57.5t101 21q55 0 101.5 -21.5t80.5 -58t53.5 -85t19.5 -102.5q0 -5 -0.5 -12.5 t-0.5 -9.5h-457q3 -45 21 -83.5t45.5 -66.5t63.5 -44t77 -16q27 0 53.5 7.5t49 20.5t40 31.5t27.5 40.5l44 -12q-12 -28 -33.5 -51.5t-50 -40.5t-62.5 -26.5t-70 -9.5zM181 649l96 81h37l97 -81l-30 -17l-85 63l-85 -63z"/>
<glyph glyph-name="edieresis" horiz-adv-x="584" unicode="ë" d="M503 280q-3 46 -20.5 84t-45 65.5t-63.5 43t-77 15.5t-77 -15.5t-63.5 -43t-44 -66t-19.5 -83.5h410zM299 -10q-55 0 -102 21.5t-81.5 59t-54 86.5t-19.5 105q0 55 19.5 103.5t53.5 85t81 57.5t101 21q55 0 101.5 -21.5t80.5 -58t53.5 -85t19.5 -102.5q0 -5 -0.5 -12.5 t-0.5 -9.5h-457q3 -45 21 -83.5t45.5 -66.5t63.5 -44t77 -16q27 0 53.5 7.5t49 20.5t40 31.5t27.5 40.5l44 -12q-12 -28 -33.5 -51.5t-50 -40.5t-62.5 -26.5t-70 -9.5zM342 640v88h44v-88h-44zM206 640v88h44v-88h-44z"/>
<glyph glyph-name="igrave" horiz-adv-x="204" unicode="ì" d="M18 730h57l62 -85l-34 -16zM77 0v520h50v-520h-50z"/>
<glyph glyph-name="iacute" horiz-adv-x="204" unicode="í" d="M77 0v520h50v-520h-50zM101 629l-35 16l61 85h58z"/>
<glyph glyph-name="icircumflex" horiz-adv-x="204" unicode="î" d="M77 0v520h50v-520h-50zM-13 649l96 81h37l97 -81l-30 -17l-85 63l-85 -63z"/>
<glyph glyph-name="idieresis" horiz-adv-x="204" unicode="ï" d="M77 0v520h50v-520h-50zM148 640v88h44v-88h-44zM12 640v88h44v-88h-44z"/>
<glyph glyph-name="eth" horiz-adv-x="600" unicode="ð" d="M95 231q0 -41 16 -76.5t43.5 -62t64 -42t78.5 -15.5t79.5 16.5t65.5 45t44 66.5t16 80q0 39 -16 73t-44 59.5t-64.5 40.5t-78.5 15t-79 -16t-65 -43t-44 -63.5t-16 -77.5zM486 689l-86 -54q46 -44 76 -90.5t47 -93t23.5 -93.5t6.5 -93q0 -60 -20.5 -110t-55.5 -87 t-82 -57.5t-99 -20.5t-98 19t-80 52t-54 77t-20 94q0 49 19.5 93t53 77t78 52.5t95.5 19.5q72 0 128.5 -35t83.5 -92q-9 66 -39 133t-101 134l-116 -74l-18 25l112 69q-29 24 -63 48t-76 48h71q30 -18 56.5 -36.5t49.5 -38.5l91 58z"/>
<glyph glyph-name="ntilde" horiz-adv-x="573" unicode="ñ" d="M350 647q-22 0 -39 6t-31 13.5t-27.5 14t-28.5 6.5q-17 0 -27 -7t-15 -15.5t-7 -16t-2 -9.5h-34q0 4 3 17.5t12.5 28t26 26t43.5 11.5q20 0 35.5 -6.5t29.5 -14t28.5 -13.5t33.5 -6q20 0 31.5 7t17 15.5t7 16t1.5 9.5h34q0 -5 -3.5 -18.5t-13 -27.5t-27.5 -25.5 t-48 -11.5zM502 0h-50v290q0 101 -28.5 147t-91.5 46q-33 0 -65.5 -12t-60 -34t-48.5 -51.5t-31 -63.5v-322h-50v520h46v-124q16 30 40 54.5t53 42t62.5 27t68.5 9.5q85 0 120 -59.5t35 -170.5v-299z"/>
<glyph glyph-name="ograve" horiz-adv-x="592" unicode="ò" d="M213 730h57l62 -85l-34 -16zM93 257q0 -46 16 -86.5t43.5 -70.5t64.5 -47.5t79 -17.5t79 17.5t64.5 48.5t44 71.5t16.5 87.5q0 46 -16.5 86.5t-44 71t-64.5 48.5t-79 18q-41 0 -78 -18t-65 -49t-44 -72.5t-16 -87.5zM296 -10q-55 0 -101.5 21.5t-80.5 58.5t-53 86 t-19 103q0 55 19.5 104t54 86t80.5 58.5t100 21.5t100.5 -21.5t81 -58.5t54 -86t19.5 -104q0 -54 -19.5 -103t-53.5 -86t-81 -58.5t-101 -21.5z"/>
<glyph glyph-name="oacute" horiz-adv-x="592" unicode="ó" d="M93 257q0 -46 16 -86.5t43.5 -70.5t64.5 -47.5t79 -17.5t79 17.5t64.5 48.5t44 71.5t16.5 87.5q0 46 -16.5 86.5t-44 71t-64.5 48.5t-79 18q-41 0 -78 -18t-65 -49t-44 -72.5t-16 -87.5zM296 -10q-55 0 -101.5 21.5t-80.5 58.5t-53 86t-19 103q0 55 19.5 104t54 86 t80.5 58.5t100 21.5t100.5 -21.5t81 -58.5t54 -86t19.5 -104q0 -54 -19.5 -103t-53.5 -86t-81 -58.5t-101 -21.5zM295 629l-35 16l61 85h58z"/>
<glyph glyph-name="ocircumflex" horiz-adv-x="592" unicode="ô" d="M93 257q0 -46 16 -86.5t43.5 -70.5t64.5 -47.5t79 -17.5t79 17.5t64.5 48.5t44 71.5t16.5 87.5q0 46 -16.5 86.5t-44 71t-64.5 48.5t-79 18q-41 0 -78 -18t-65 -49t-44 -72.5t-16 -87.5zM296 -10q-55 0 -101.5 21.5t-80.5 58.5t-53 86t-19 103q0 55 19.5 104t54 86 t80.5 58.5t100 21.5t100.5 -21.5t81 -58.5t54 -86t19.5 -104q0 -54 -19.5 -103t-53.5 -86t-81 -58.5t-101 -21.5zM181 649l96 81h37l97 -81l-30 -17l-85 63l-85 -63z"/>
<glyph glyph-name="otilde" horiz-adv-x="592" unicode="õ" d="M358 647q-22 0 -39 6t-31 13.5t-27.5 14t-28.5 6.5q-17 0 -27 -7t-15 -15.5t-7 -16t-2 -9.5h-34q0 4 3 17.5t12.5 28t26 26t43.5 11.5q20 0 35.5 -6.5t29.5 -14t28.5 -13.5t33.5 -6q20 0 31.5 7t17 15.5t7 16t1.5 9.5h34q0 -5 -3.5 -18.5t-13 -27.5t-27.5 -25.5 t-48 -11.5zM93 257q0 -46 16 -86.5t43.5 -70.5t64.5 -47.5t79 -17.5t79 17.5t64.5 48.5t44 71.5t16.5 87.5q0 46 -16.5 86.5t-44 71t-64.5 48.5t-79 18q-41 0 -78 -18t-65 -49t-44 -72.5t-16 -87.5zM296 -10q-55 0 -101.5 21.5t-80.5 58.5t-53 86t-19 103q0 55 19.5 104 t54 86t80.5 58.5t100 21.5t100.5 -21.5t81 -58.5t54 -86t19.5 -104q0 -54 -19.5 -103t-53.5 -86t-81 -58.5t-101 -21.5z"/>
<glyph glyph-name="odieresis" horiz-adv-x="592" unicode="ö" d="M93 257q0 -46 16 -86.5t43.5 -70.5t64.5 -47.5t79 -17.5t79 17.5t64.5 48.5t44 71.5t16.5 87.5q0 46 -16.5 86.5t-44 71t-64.5 48.5t-79 18q-41 0 -78 -18t-65 -49t-44 -72.5t-16 -87.5zM296 -10q-55 0 -101.5 21.5t-80.5 58.5t-53 86t-19 103q0 55 19.5 104t54 86 t80.5 58.5t100 21.5t100.5 -21.5t81 -58.5t54 -86t19.5 -104q0 -54 -19.5 -103t-53.5 -86t-81 -58.5t-101 -21.5zM342 640v88h44v-88h-44zM206 640v88h44v-88h-44z"/>
<glyph glyph-name="divide" horiz-adv-x="543" unicode="÷" d="M70 257v43h403v-43h-403zM249 81v80h44v-80h-44zM249 394v81h44v-81h-44z"/>
<glyph glyph-name="oslash" horiz-adv-x="592" unicode="ø" d="M296 35q42 0 79 17.5t64.5 48.5t44 71.5t16.5 87.5q0 51 -20.5 95.5t-54.5 75.5l-235 -364q23 -15 50 -23.5t56 -8.5zM93 257q0 -53 20 -97t54 -75l235 365q-23 16 -50 25t-56 9q-41 0 -78 -18t-65 -49t-44 -72.5t-16 -87.5zM139 46q-45 38 -71 93.5t-26 119.5 q0 55 19.5 104t54 86t80.5 58.5t100 21.5q37 0 70 -10.5t62 -28.5l22 31h39l-36 -50q45 -38 71.5 -93t26.5 -119q0 -54 -19.5 -103t-53.5 -86t-81 -58.5t-101 -21.5q-38 0 -70.5 10t-61.5 28l-21 -29h-38z"/>
<glyph glyph-name="ugrave" horiz-adv-x="587" unicode="ù" d="M202 730h57l62 -85l-34 -16zM238 -10q-167 0 -167 230v300h50v-293q0 -192 131 -192q33 0 64.5 11.5t58.5 32t47.5 49.5t32.5 64v328h50v-450q0 -25 21 -25v-45q-6 -1 -10 -1h-8q-21 0 -34.5 12.5t-13.5 32.5v79q-35 -63 -94 -98t-128 -35z"/>
<glyph glyph-name="uacute" horiz-adv-x="587" unicode="ú" d="M238 -10q-167 0 -167 230v300h50v-293q0 -192 131 -192q33 0 64.5 11.5t58.5 32t47.5 49.5t32.5 64v328h50v-450q0 -25 21 -25v-45q-6 -1 -10 -1h-8q-21 0 -34.5 12.5t-13.5 32.5v79q-35 -63 -94 -98t-128 -35zM285 629l-35 16l61 85h58z"/>
<glyph glyph-name="ucircumflex" horiz-adv-x="587" unicode="û" d="M238 -10q-167 0 -167 230v300h50v-293q0 -192 131 -192q33 0 64.5 11.5t58.5 32t47.5 49.5t32.5 64v328h50v-450q0 -25 21 -25v-45q-6 -1 -10 -1h-8q-21 0 -34.5 12.5t-13.5 32.5v79q-35 -63 -94 -98t-128 -35zM171 649l96 81h37l97 -81l-30 -17l-85 63l-85 -63z"/>
<glyph glyph-name="udieresis" horiz-adv-x="587" unicode="ü" d="M238 -10q-167 0 -167 230v300h50v-293q0 -192 131 -192q33 0 64.5 11.5t58.5 32t47.5 49.5t32.5 64v328h50v-450q0 -25 21 -25v-45q-6 -1 -10 -1h-8q-21 0 -34.5 12.5t-13.5 32.5v79q-35 -63 -94 -98t-128 -35zM332 640v88h44v-88h-44zM196 640v88h44v-88h-44z"/>
<glyph glyph-name="yacute" horiz-adv-x="542" unicode="ý" d="M274 629l-35 16l61 85h58zM113 -177q9 0 26.5 1t26.5 6q4 2 9.5 9.5t14.5 25.5t23 50.5t35 84.5l-232 520h53l206 -471l193 471h49l-285 -684q-15 -36 -39.5 -47.5t-59.5 -11.5h-10t-10 1v45z"/>
<glyph glyph-name="thorn" horiz-adv-x="602" unicode="þ" d="M510 258q0 44 -14 84.5t-40 72t-62 50.5t-80 19q-33 0 -61 -11t-51.5 -29.5t-42 -42.5t-31.5 -50v-180q0 -27 17.5 -52t44 -44t58 -30.5t58.5 -11.5q45 0 82.5 19t64.5 50.5t42 72t15 83.5zM560 258q-1 -54 -21 -103t-53.5 -86.5t-79.5 -60t-99 -22.5q-29 0 -55.5 8 t-50 22t-42 32t-31.5 39v-300h-51v923h51v-289q32 46 78 77.5t110 31.5q57 0 102.5 -24.5t77 -63.5t48 -87.5t16.5 -96.5z"/>
<glyph glyph-name="OE" horiz-adv-x="1180" unicode="Œ" d="M380 42q64 0 115.5 27t88.5 71.5t57 100.5t20 115q0 61 -21 117t-58.5 99.5t-89 69.5t-112.5 26q-64 0 -116 -27t-88.5 -71.5t-56.5 -100.5t-20 -114q0 -61 20.5 -117.5t58 -100t89 -69.5t113.5 -26zM1132 46v-46h-470v200q-17 -43 -45 -80.5t-64 -65t-79.5 -43.5 t-91.5 -16q-74 0 -135.5 30.5t-105.5 81t-68.5 115.5t-24.5 133q0 71 25.5 136t70 115t105.5 79.5t132 29.5q50 0 94 -16.5t80 -44.5t63 -65.5t44 -79.5v201h461v-46h-410v-278h356v-47h-356v-293h419z"/>
<glyph glyph-name="oe" horiz-adv-x="1042" unicode="œ" d="M960 277q-3 46 -20 85t-44.5 67t-64 43.5t-77.5 15.5t-77 -16t-63 -44t-43.5 -66.5t-18.5 -84.5h408zM296 35q43 0 80 17.5t64.5 47.5t43.5 71t16 88t-16 88t-43 71.5t-64 48t-79 17.5t-79.5 -18t-65 -49t-43.5 -72.5t-16 -88.5t16 -87t43 -70t64 -47t79 -17zM295 -10 q-53 0 -99 21t-80 57t-53.5 85t-19.5 105q0 57 19.5 106t54 86t81 58t100.5 21q39 0 75 -12.5t65 -35.5t51.5 -55.5t34.5 -72.5q26 83 86.5 129.5t144.5 46.5q55 0 101.5 -20.5t80.5 -58.5t53 -91t19 -119h-456q3 -44 21.5 -82t47 -66.5t66.5 -45t80 -16.5q28 0 55 7.5 t49.5 20.5t39.5 31.5t26 40.5l43 -12q-12 -29 -34 -52.5t-50.5 -40t-62.5 -26t-69 -9.5q-39 0 -75.5 12.5t-68 36t-56 55.5t-39.5 71q-15 -40 -38.5 -72.5t-53 -55t-65 -35t-74.5 -12.5z"/>
<glyph glyph-name="Scaron" horiz-adv-x="611" unicode="Š" d="M509 592q-69 77 -195 77q-104 0 -151.5 -39.5t-47.5 -106.5q0 -34 12 -57t37.5 -38.5t65 -27t93.5 -22.5q58 -12 104 -26.5t78.5 -36.5t50 -54t17.5 -79t-18.5 -82t-52 -58.5t-80 -35.5t-103.5 -12q-166 0 -281 106l27 41q45 -47 110 -74.5t146 -27.5q93 0 145.5 34 t52.5 103q0 35 -13.5 59.5t-41.5 42.5t-69.5 31t-97.5 25q-57 12 -100.5 25.5t-73.5 34t-45 49.5t-15 73q0 48 18.5 85t51.5 62.5t79 38.5t102 13q69 0 123 -20.5t98 -62.5zM230 936l85 -63l85 63l30 -17l-97 -81h-37l-96 81z"/>
<glyph glyph-name="scaron" horiz-adv-x="481" unicode="š" d="M243 -10q-60 0 -115 20t-96 60l25 34q42 -38 87 -56t99 -18q68 0 109.5 28.5t41.5 79.5q0 24 -10.5 40.5t-31.5 28t-52 20.5t-72 19q-44 10 -76.5 20t-53.5 24t-31.5 34t-10.5 51q0 39 15 68t41.5 48t61 28.5t73.5 9.5q61 0 108 -20.5t73 -52.5l-28 -27q-26 30 -67.5 45 t-88.5 15q-29 0 -54.5 -6t-44.5 -19t-30 -33.5t-11 -48.5q0 -23 7.5 -37t24 -24t42.5 -17.5t62 -16.5q49 -12 87 -23t63.5 -27t39 -38t13.5 -56q0 -70 -54.5 -111.5t-145.5 -41.5zM159 730l85 -63l85 63l30 -17l-97 -81h-37l-96 81z"/>
<glyph glyph-name="Ydieresis" horiz-adv-x="631" unicode="Ÿ" d="M361 828v88h44v-88h-44zM225 828v88h44v-88h-44zM67 710l248 -393l250 393h56l-280 -442v-268h-51v270l-279 440h56z"/>
<glyph glyph-name="circumflex" horiz-adv-x="320" unicode="ˆ" d="M45 649l96 81h37l97 -81l-30 -17l-85 63l-85 -63z"/>
<glyph glyph-name="tilde" horiz-adv-x="397" unicode="˜" d="M258 647q-22 0 -39 6t-31 13.5t-27.5 14t-28.5 6.5q-17 0 -27 -7t-15 -15.5t-7 -16t-2 -9.5h-34q0 4 3 17.5t12.5 28t26 26t43.5 11.5q20 0 35.5 -6.5t29.5 -14t28.5 -13.5t33.5 -6q20 0 31.5 7t17 15.5t7 16t1.5 9.5h34q0 -5 -3.5 -18.5t-13 -27.5t-27.5 -25.5 t-48 -11.5z"/>
<glyph glyph-name="uni03BC" horiz-adv-x="593" unicode="μ" d="M77 520h50v-293q0 -192 131 -192q33 0 64 11.5t58 32t47.5 49.5t32.5 64v328h50v-450q0 -25 21 -25v-45q-6 -1 -10 -1h-8q-20 0 -34 12.5t-14 32.5v79q-15 -29 -37 -53.5t-49.5 -42t-58.5 -27.5t-64 -10q-51 0 -83 24.5t-48 67.5v-294h-48v732z"/>
<glyph glyph-name="endash" horiz-adv-x="562" unicode="–" d="M68 249v46h426v-46h-426z"/>
<glyph glyph-name="emdash" horiz-adv-x="894" unicode="—" d="M68 249v46h758v-46h-758z"/>
<glyph glyph-name="quoteleft" horiz-adv-x="186" unicode="‘" d="M123 560q-25 0 -43.5 12.5t-18.5 40.5v117h44v-112q0 -11 5 -14.5t13 -3.5v-40z"/>
<glyph glyph-name="quotesinglbase" horiz-adv-x="196" unicode="‚" d="M61 -14q7 0 12.5 3.5t5.5 14.5v81h44v-87q0 -28 -19 -40t-43 -12v40z"/>
<glyph glyph-name="quotedblleft" horiz-adv-x="296" unicode="“" d="M233 560q-25 0 -43.5 12.5t-18.5 40.5v117h44v-112q0 -11 5 -14.5t13 -3.5v-40zM123 560q-25 0 -43.5 12.5t-18.5 40.5v117h44v-112q0 -11 5 -14.5t13 -3.5v-40z"/>
<glyph glyph-name="quotedblright" horiz-adv-x="295" unicode="”" d="M165 730q25 0 43.5 -12.5t18.5 -40.5v-117h-44v112q0 11 -5 14.5t-13 3.5v40zM55 730q25 0 43.5 -12.5t18.5 -40.5v-117h-44v112q0 11 -5 14.5t-13 3.5v40z"/>
<glyph glyph-name="dagger" horiz-adv-x="400" unicode="†" d="M176 -130v378h-132v46h132v481h49v-481h131v-46h-131v-378h-49z"/>
<glyph glyph-name="daggerdbl" horiz-adv-x="409" unicode="‡" d="M181 -130v305h-132v46h132v111h-132v46h132v397h48v-397h131v-46h-131v-111h131v-46h-131v-305h-48z"/>
<glyph glyph-name="ellipsis" horiz-adv-x="419" unicode="…" d="M307 0v85h44v-85h-44zM188 0v85h43v-85h-43zM68 0v85h44v-85h-44z"/>
<glyph glyph-name="perthousand" horiz-adv-x="1042" unicode="‰" d="M66 21l280 344l274 348l28 -23l-280 -345l-274 -348zM863 22q22 0 41 9t33.5 24t22.5 35t8 42t-8.5 42t-23 35t-33.5 23.5t-40 8.5q-22 0 -41.5 -9t-33.5 -24t-22.5 -35t-8.5 -41q0 -23 8.5 -43t23 -35t33.5 -23.5t41 -8.5zM863 -10q-30 0 -56.5 11t-46 30.5t-31 45 t-11.5 55.5q0 29 11.5 55t31 45t46 30t56.5 11t56.5 -11t46 -30t31 -45t11.5 -55q0 -30 -11.5 -55.5t-31 -45t-46 -30.5t-56.5 -11zM518 22q22 0 41.5 9t33.5 24t22.5 35t8.5 42t-8.5 42t-23.5 35t-34 23.5t-40 8.5q-22 0 -41 -9t-33.5 -24t-22.5 -35t-8 -41q0 -23 8.5 -43 t22.5 -35t33.5 -23.5t40.5 -8.5zM518 -10q-30 0 -56 11t-46 30.5t-31.5 45t-11.5 55.5q0 29 11.5 55t31.5 45t46 30t56 11t57 -11t46.5 -30t31 -45t11.5 -55q0 -30 -11.5 -55.5t-31 -45t-46.5 -30.5t-57 -11zM197 469q22 0 41 9t33 24t22.5 35t8.5 41q0 23 -8.5 43t-23 35 t-33.5 23.5t-40 8.5q-22 0 -41.5 -9t-33.5 -24t-22.5 -35t-8.5 -42q0 -23 8.5 -42.5t23 -34.5t34 -23.5t40.5 -8.5zM197 437q-30 0 -56.5 11t-46.5 30t-31.5 45t-11.5 55q0 30 11.5 55.5t31.5 45t46.5 30.5t56.5 11t56.5 -11t46 -30.5t31 -45t11.5 -55.5q0 -29 -11.5 -55 t-31 -45t-46 -30t-56.5 -11z"/>
<glyph glyph-name="guilsinglleft" horiz-adv-x="356" unicode="‹" d="M46 273l245 175v-45l-203 -144l203 -143v-45l-245 172v30z"/>
<glyph glyph-name="guilsinglright" horiz-adv-x="356" unicode="›" d="M310 243l-244 -172v45l202 143l-202 144v45l244 -175v-30z"/>
<glyph glyph-name="fraction" horiz-adv-x="141" unicode="⁄" d="M-220 21l280 344l274 348l28 -23l-280 -345l-274 -348z"/>
<glyph glyph-name="Euro" horiz-adv-x="809" unicode="€" d="M145 410q8 58 34 113t68.5 97.5t100.5 68t130 25.5q95 0 162 -43.5t99 -111.5l-42 -24q-18 37 -43.5 62t-55 40.5t-61.5 22.5t-63 7q-60 0 -107.5 -21.5t-83 -57.5t-57.5 -82.5t-29 -95.5h359l-15 -34h-348v-19q0 -24 3 -46h323l-16 -34h-301q12 -50 37.5 -93t61.5 -74.5 t81 -50t95 -18.5q32 0 65.5 8t65 25t58.5 43.5t45 62.5l43 -21q-18 -40 -48.5 -71t-68.5 -52t-80.5 -31.5t-83.5 -10.5q-62 0 -115 23t-95 62t-70.5 90.5t-41.5 107.5h-117l15 34h96q-3 24 -3 49v16h-75l15 34h63z"/>
<glyph glyph-name="trademark" horiz-adv-x="698" unicode="™" d="M567 710h50v-283h-37v226l-89 -184h-32l-89 184v-226h-37v283h49l93 -195zM287 674h-95v-247h-38v247h-95v38h228v-38z"/>
<glyph glyph-name="minus" horiz-adv-x="548" unicode="−" d="M72 265v42h403v-42h-403z"/>
</font>
</defs>
</svg>
